<svg width="199" height="41" viewBox="0 0 199 41" fill="none" xmlns="http://www.w3.org/2000/svg">
<path d="M11.2217 1.1345C5.89032 3.1396 -3.36869 11.1485 2.24662 27.1431C2.91486 28.8091 4.95134 32.1405 5.75134 32.1397C6.41849 32.6391 7.55249 33.338 8.75134 32.1369C10.2499 30.6354 7.74464 25.1378 8.74464 25.1369" stroke="black"/>
<path d="M33.0374 15.118C33.0292 15.0778 32.9981 14.905 32.9481 14.6262M33.0374 15.118C33.032 15.0946 33.0014 14.9235 32.9481 14.6262M33.0374 15.118C33.035 15.186 33.0331 15.2566 33.0313 15.327C33.0299 15.3817 33.0285 15.4363 33.0268 15.4895M33.0374 15.118C33.0339 15.1387 33.0301 15.2745 33.0268 15.4895M33.0374 15.118C33.2147 10.1936 33.7733 6.12164 34.9611 6.12051M33.0374 15.118C32.9696 14.7882 31.3695 5.53263 30.3039 2.07478M33.0374 15.118L33.0392 15.1224M32.9481 14.6262C32.5875 12.6179 31.2396 5.11111 30.3039 2.07478M32.9481 14.6262C32.588 12.6199 31.2395 5.11097 30.3039 2.07478M30.3039 2.07478C30.1797 1.67173 30.0628 1.34745 29.9564 1.12526C29.5556 0.325643 28.4557 0.460029 27.9559 0.627174C26.1233 1.46226 25.9603 5.22912 25.9626 7.62912C25.9634 8.52505 26.0983 9.64387 26.2472 10.8791C26.5968 13.7798 27.0239 17.3227 25.9745 20.1291C25.1536 22.3245 25.146 22.2928 25.1147 22.1638C25.1004 22.1047 25.0812 22.0252 24.9766 22.13C23.8109 23.1312 20.478 23.7343 20.4746 20.1343C20.4722 17.6174 19.9817 15.769 19.6865 14.6568C19.5595 14.1782 19.4687 13.8359 19.4685 13.6353C18.9664 11.4691 17.3635 8.43731 14.9685 13.6396C12.5734 18.8419 16.9849 30.8044 19.49 36.1353C19.869 37.0802 20.1411 38.4326 19.5757 39.1352M33.0268 15.4895C32.989 16.6714 32.9724 17.8969 32.9736 19.1224C32.9769 22.5768 32.9856 21.1518 32.9982 19.0995C33.0062 17.778 33.0159 16.1955 33.0268 15.4895ZM33.0268 15.4895C33.0299 15.2884 33.036 15.1553 33.0392 15.1224M34.9611 6.12051C34.9608 5.72051 36.2949 6.61923 36.9621 7.11859C40.4645 9.61524 41.4731 18.6143 40.4774 23.1152C39.4817 27.6162 32.66 40.6227 19.5757 39.1352M34.9611 6.12051C33.7737 6.12164 33.2167 10.2 33.0392 15.1224M19.5757 39.1352C19.1442 39.6714 18.2248 39.829 16.4927 39.1382C12.4912 37.542 9.82129 28.6337 8.98413 24.6345" stroke="black"/>
<path d="M30.4949 27.3185C30.4994 27.3185 30.504 27.3185 29.7973 28.2C29.0906 29.0816 27.6726 30.8446 26.8191 31.9549C25.9656 33.0651 25.7196 33.4691 25.5471 33.789C25.2602 34.3207 25.1572 34.6092 25.0559 34.8087C24.9798 34.9585 24.8778 35.2189 25.5663 34.21C26.2549 33.2012 27.7432 30.9182 28.5294 29.7227C29.3155 28.5271 29.3544 28.4882 29.4003 28.4385C29.4461 28.3888 29.4977 28.3295 29.0379 28.7707C28.5781 29.2119 27.6052 30.1555 27.0667 30.6696C26.2585 31.4411 25.7735 31.8586 25.3552 32.1245C25.2578 32.1864 25.154 32.2145 25.069 32.2371C24.984 32.2598 24.9153 32.266 24.8731 32.0533C24.7471 31.4187 24.8321 30.6745 25.0152 29.811C25.1386 29.2293 25.4484 28.3863 25.7093 27.6714C25.9702 26.9564 26.2048 26.4027 26.2848 26.1439C26.3649 25.8851 26.2834 25.9379 25.7705 26.4836C25.2576 27.0292 24.3157 28.066 23.8171 28.5686C23.3185 29.0713 23.2916 29.0083 23.2778 28.9293C23.248 28.759 23.2939 28.0678 23.3066 27.076C23.3142 26.485 23.0585 26.1779 22.8788 25.9686C22.7476 25.8159 22.2164 25.6368 21.388 25.3678C20.3585 25.0334 20.1614 24.7845 19.7988 24.5208C19.423 24.2475 19.2508 23.9562 19.187 23.5965C19.1455 23.3623 19.172 23.1621 19.1594 22.7051C19.129 21.6025 19.1462 20.7886 19.1156 20.5955C19.016 20.1192 18.848 19.5288 18.6538 19.0356C18.6168 18.9626 18.5836 18.9122 18.5349 18.8313" stroke="black" stroke-width="2" stroke-linecap="round"/>
<path d="M17.2258 11.2913C17.1821 11.3073 17.0504 11.3819 16.9017 11.502C16.8245 11.5645 16.6674 11.719 16.4525 11.9856C16.2371 12.253 16.1327 12.563 16.021 12.906C15.9529 13.1153 15.9038 13.4088 15.8654 13.87C15.8271 14.3312 15.8118 14.9545 15.8073 15.2947C15.8024 15.6728 15.8229 15.7752 15.8392 15.8576C15.844 15.8822 15.8949 15.7449 16.0957 15.0781C16.2734 14.4879 16.6284 13.3939 16.8177 12.7878C17.0731 11.9705 17.1134 11.8452 17.153 11.8009C17.252 11.6903 17.4386 11.8863 17.5642 12.0185C17.6556 12.1147 17.7026 12.2875 17.7844 12.6308C17.9404 13.2852 18.0034 13.7513 18.025 13.8238C18.0585 13.936 18.1131 14.1514 18.1293 14.303C18.1501 14.4963 17.9294 13.9029 17.8814 13.7602C17.8709 13.729 17.8656 13.7005 17.9937 14.1673C18.1218 14.6341 18.3841 15.5968 18.5245 16.1275C18.665 16.6581 18.6757 16.7275 18.7199 16.9654C18.8394 17.6078 18.925 18.0619 18.9384 18.1568C18.9742 18.4101 19.0422 18.5446 19.1111 18.9232C19.1679 19.2346 19.1898 19.4469 19.2 19.4584C19.2658 19.5323 19.1498 18.9588 19.0528 18.4524C19.0096 18.2269 18.9702 18.0892 18.8933 17.7633C18.7556 17.1802 18.6274 16.7952 18.5847 16.6661C18.4933 16.3898 18.4398 16.1347 18.4231 15.8371C18.365 14.8011 18.4386 14.7091 18.4634 14.6796C18.4713 14.6702 18.487 14.7048 18.4691 15.8005C18.4512 16.8962 18.4036 19.0604 18.4413 20.4764C18.4789 21.8923 18.6033 22.4946 18.7214 22.9632C18.9213 23.756 19.0747 24.1055 19.0926 24.1288C19.1244 24.1703 19.0493 23.9827 18.7865 23.2173C18.5411 22.5026 18.0957 21.116 17.7309 19.6448C17.3662 18.1737 17.1027 16.6576 16.9642 15.8613C16.8204 15.0344 16.8147 14.9751 16.8072 14.9176C16.8033 14.8872 16.785 14.8571 16.7594 16.1417C16.7339 17.4263 16.6982 20.0273 16.705 21.5116C16.7119 22.996 16.7624 23.285 16.8322 23.6073C16.902 23.9297 16.9896 24.2767 17.0857 24.5831C17.3604 25.4593 17.4772 25.566 17.5482 25.6607C17.5574 25.673 17.5635 25.5973 17.4443 24.5773C17.3251 23.5573 17.0844 21.5741 16.9165 20.2633C16.7487 18.9525 16.661 18.3742 16.608 17.5604C16.5549 16.7466 16.5392 15.7148 16.541 15.1536C16.5433 14.4307 16.6353 14.2753 16.7287 13.9111C16.7628 13.7779 16.7686 13.6958 16.7753 13.6385C16.7786 13.6107 16.7603 13.5849 16.722 13.5965C16.6085 13.631 16.4449 13.8399 16.2375 14.0966C16.0483 14.3308 15.8562 14.7504 15.657 15.2458C15.5748 15.4501 15.5497 15.5661 15.5237 16.1311C15.4978 16.6961 15.4766 17.7085 15.5771 18.8147C15.6775 19.9209 15.9003 21.0902 16.0961 21.9138C16.2919 22.7373 16.4539 23.1796 16.5538 23.4426C16.6812 23.7779 16.7392 23.8788 16.7678 23.9082C16.7747 23.9153 16.7781 23.8725 16.7721 23.8422C16.7661 23.8118 16.7535 23.7864 16.7423 23.7866C16.6334 23.789 16.606 24.0555 16.5185 24.1534C16.5016 24.1724 16.4679 24.1578 16.4422 24.1365C16.3828 24.0875 16.3574 24.0115 16.3377 23.9936C16.1095 23.7869 16.3304 24.854 16.386 25.1082C16.4326 25.3209 16.5247 25.5878 16.7118 26.0485C16.8361 26.3546 17.0092 26.7114 17.0927 26.8938C17.125 26.9643 17.2723 27.3187 17.5147 27.8455C17.7135 28.2774 17.7999 28.3313 17.8459 28.3485C17.8695 28.3574 17.899 28.3143 17.9439 27.4749C17.9889 26.6356 18.0497 24.9878 18.1019 24.1423C18.1542 23.2968 18.1959 23.3035 18.2317 23.3151C18.2985 23.3367 18.4836 23.4914 18.837 23.8312C19.0428 24.0291 19.2601 24.3204 19.6034 24.8562C19.9467 25.3921 20.3987 26.1744 20.6086 26.5697C20.8184 26.965 20.7724 26.9495 20.5623 26.7634C20.3522 26.5772 19.9792 26.2208 19.7665 26.0234C19.4138 25.6962 19.1421 25.5194 18.8927 25.3733C18.7613 25.2963 18.6098 25.2321 18.6077 25.4558C18.6055 25.6794 18.7547 26.1976 18.8772 26.5841C19.0768 27.2142 19.2533 27.5888 19.3663 27.8056C19.4102 27.8898 19.4296 27.9202 19.4415 27.9142C19.4534 27.9081 19.4581 27.8644 19.4126 27.1778C19.3672 26.4911 19.2715 25.1628 19.2205 24.4651C19.1675 23.7402 19.1604 23.5055 19.1589 23.1725C19.1579 22.928 19.172 22.7292 19.1932 22.5491C19.2005 22.4867 19.2434 22.4919 19.2805 22.5083C19.3632 22.5449 19.7114 22.8777 20.2152 23.3539C20.5753 23.6943 20.6764 23.8 20.7642 23.8836C20.8928 24.0059 20.2739 23.1979 20.0421 22.852C19.9644 22.7359 19.9255 22.5896 19.8598 22.4315C19.7892 22.2618 19.7987 22.1102 19.7732 22.0157C19.7492 21.9268 19.9188 22.4729 20.0247 22.7122C20.0818 22.8414 20.1922 23.0169 20.2998 23.163C20.4041 23.3046 20.5647 23.3989 20.7027 23.4871C20.8311 23.569 20.9838 23.6088 21.1155 23.67C21.2405 23.7282 21.3633 23.7903 21.4777 23.8391C21.618 23.8991 21.8504 23.9174 22.026 23.9328C22.097 23.9391 22.2736 23.9721 22.5643 24.0325C22.8626 24.0945 23.3305 24.1326 23.8254 24.1362C24.1582 24.1386 24.4458 24.0255 24.6533 23.9649C25.0695 23.8435 25.5641 23.7118 25.6818 23.6264C25.7867 23.5504 25.8392 23.4158 25.9127 23.1951C25.9945 22.9495 26.0161 22.8605 26.0411 22.8071C26.0686 22.7484 25.7313 23.0484 25.1367 23.5913C24.7964 23.902 24.5757 24.0456 24.3514 24.1862C24.0771 24.3582 23.8741 24.4651 23.7944 24.5066C23.7573 24.526 23.7259 24.5395 23.7627 24.5049C23.7996 24.4703 23.9054 24.3866 24.2591 24.1681C24.6128 23.9497 25.2113 23.599 25.5405 23.4032C25.9969 23.1317 26.0936 23.065 26.1306 23.0612C26.15 23.0592 26.1467 23.1216 25.9974 23.4121C25.8481 23.7026 25.5468 24.2359 25.1893 24.7659C24.8318 25.2958 24.4272 25.8063 24.1793 26.1047C23.7773 26.5883 23.6754 26.6127 23.643 26.6287C23.6155 26.6424 23.8645 26.3605 24.4759 25.7629C24.8789 25.3689 25.4968 24.8184 25.8655 24.471C26.3417 24.0028 26.4684 23.8561 26.487 23.8099C26.4897 23.786 26.4787 23.7609 26.4674 23.735" stroke="black" stroke-width="2" stroke-linecap="round"/>
<path d="M28.3591 11.4047C28.3591 11.392 28.3428 11.3569 28.271 11.1318C28.2089 10.9373 28.1214 10.5717 28.0693 9.80608C28.0173 9.04046 28.0102 7.88383 28.0077 7.33395C28.0052 6.78408 28.0075 6.87602 27.8883 7.49136C27.7691 8.10669 27.5283 9.24263 27.3965 10.1447C27.2647 11.0468 27.2492 11.6806 27.2449 12.0342C27.2401 12.4418 27.2597 12.5526 27.2533 12.6181C27.2491 12.6604 27.1758 12.5016 27.1132 12.2236C27.0628 12.0002 27.0033 11.604 26.9521 10.7572C26.9009 9.91047 26.867 8.62373 26.8618 7.7302C26.8565 6.83668 26.8808 6.37534 26.8973 6.124C26.9138 5.87265 26.9218 5.84526 26.9671 5.83115C27.1994 5.75883 27.6439 5.83337 27.9338 5.87224C28.1681 5.90365 28.4258 6.29816 28.6389 6.63779C28.7673 6.84238 28.8944 7.13757 29.0219 7.47167C29.1494 7.80577 29.2626 8.17625 29.5416 10.2479C29.8205 12.3196 30.2618 16.0812 30.4891 18.0342C30.7164 19.9873 30.7164 20.0178 30.7046 20.024C30.6711 20.0414 30.5926 19.9006 30.3236 19.0406C30.0849 18.2777 29.727 16.8258 29.4334 15.1448C29.1398 13.4638 28.944 11.5909 28.8431 10.4601C28.7423 9.32938 28.7423 8.99744 28.8396 11.4727C28.937 13.9479 29.1317 19.2404 29.2353 21.9837C29.339 24.7269 29.3456 24.7607 29.3311 24.7648C29.1839 24.8063 29.117 24.5348 29.0388 24.3358C28.9803 24.1868 28.9017 23.9336 28.7251 22.2319C28.5485 20.5302 28.281 17.3858 28.1196 15.6537C27.9581 13.9217 27.9108 13.6972 27.8798 13.5588C27.8203 13.2922 27.767 13.1535 27.7005 12.9649C27.6928 12.9431 27.6786 12.9793 27.7341 14.0004C27.7895 15.0214 27.9079 17.0301 27.9161 18.4832C27.9243 19.9362 27.8188 20.7727 27.7473 21.2836C27.6252 22.1568 27.5331 22.3478 27.4294 22.5923C27.2401 23.0392 27.0413 23.172 26.9844 23.2519C26.9689 23.2737 26.9589 23.2367 26.9597 23.0771C26.9605 22.9175 26.9669 22.6313 27.1227 21.587C27.2786 20.5427 27.5838 18.7491 27.7411 17.8102C27.8983 16.8713 27.8983 16.8414 27.8963 16.8517C27.8842 16.9125 27.8722 17.0121 27.6241 17.6766C27.3927 18.2964 26.9354 19.4856 26.6315 20.4282C26.3276 21.3708 26.1878 22.0296 26.1056 22.3963C26.0028 22.8177 25.9541 22.9165 25.9014 22.9919C25.8761 23.0248 25.8539 23.0469 25.801 23.1056" stroke="black" stroke-width="2" stroke-linecap="round"/>
<path d="M27.5742 24.893C27.5742 24.8908 27.5742 24.8886 27.2017 25.503C26.8292 26.1174 26.0842 27.3484 25.6702 28.0514C25.1803 28.8832 25.1251 29.0666 25.0799 29.1961C25.0457 29.2941 24.9772 29.4532 24.9739 29.4459C24.9705 29.4385 25.0315 29.2586 25.1353 29.0133C25.2392 28.7681 25.3841 28.4628 25.5396 28.1737C25.695 27.8847 25.8565 27.621 26.0558 27.3491C26.2552 27.0771 26.4875 26.8049 26.7117 26.5831C27.124 26.1754 27.4633 25.9864 27.6426 25.9166C27.7633 25.8696 27.8638 25.8754 27.9597 25.8382C28.0175 25.8158 28.0605 25.7267 28.1819 25.4922C28.3032 25.2576 28.4931 24.8652 28.6318 24.5379C28.8729 23.9687 28.9592 23.5303 28.9937 23.2354C29.0081 23.1129 29.0055 23.0447 28.9835 23.0097C28.9615 22.9747 28.9174 22.9747 28.613 23.2992C28.3085 23.6238 27.745 24.2729 27.0062 25.3299C26.2675 26.3869 25.3706 27.8321 24.7092 29.0299C24.0479 30.2277 23.6491 31.1343 23.3894 31.858C23.1296 32.5818 23.0209 33.0952 22.9649 33.3944C22.8963 33.7609 22.8951 33.9647 22.8743 34.292C22.8453 34.7479 22.8908 35.0336 22.9511 35.0596C22.9858 35.0745 23.0371 35.0684 23.1361 35.0176C23.2352 34.9668 23.3825 34.8651 24.2498 33.888C25.117 32.9109 26.6997 31.0615 27.6319 29.9103C28.5641 28.7591 28.7978 28.3622 28.9261 28.1323C29.0799 27.8569 29.0866 27.7476 29.0783 27.6513C29.0744 27.6061 29.0534 27.5709 29.0335 27.544C28.9973 27.4948 28.9053 27.4758 28.7668 27.4715C28.6908 27.4691 28.6031 27.4855 27.8129 28.1374C27.0228 28.7893 25.5328 30.081 24.7253 30.7886C23.9178 31.4961 23.8379 31.5803 24.7031 30.5972C25.5682 29.6141 27.3808 27.5612 28.2917 26.4985C29.2026 25.4358 29.157 25.4254 29.1069 25.4225C29.0568 25.4196 29.0037 25.4244 28.9145 25.4543C28.8254 25.4842 28.702 25.5391 27.5176 26.4793C26.3332 27.4195 24.0915 29.2434 22.9141 30.1961C21.7367 31.1489 21.6915 31.1751 21.6493 31.1915C21.6071 31.2078 21.5693 31.2135 21.5294 31.1907C21.4343 31.1365 21.3295 30.9033 21.1571 30.4205C21.0441 30.104 20.9501 29.6194 20.8801 29.2679C20.8101 28.9164 20.7849 28.7068 20.7672 28.2153C20.7496 27.7238 20.7401 26.9567 20.7433 26.5268C20.7482 25.8496 20.9101 25.6229 20.9503 25.5966C20.9707 25.5833 21.006 25.6091 21.036 25.6358C21.0999 25.6925 21.2206 25.9406 21.4238 26.4132C21.5378 26.6782 21.6354 27.0098 21.7528 27.4931C21.8701 27.9763 21.9945 28.6052 22.081 29.2813C22.1675 29.9573 22.2124 30.6614 22.2356 30.1368C22.2587 29.6123 22.2587 27.8378 22.2554 26.9067C22.252 25.9756 22.2453 25.9419 22.0834 26.932C21.9214 27.9221 21.6044 29.9372 21.4376 31.3189C21.2707 32.7006 21.2636 33.3878 21.2419 33.7413C21.2201 34.0947 21.184 34.0934 21.1089 34.0377C20.9076 33.8884 20.6464 33.5371 20.3116 32.994C20.1191 32.6817 19.945 32.2573 19.6299 31.2672C19.3147 30.2771 18.8802 28.7245 18.6507 27.9119C18.4211 27.0993 18.4097 27.0738 18.4039 27.1033C18.398 27.1327 18.398 27.218 18.5112 27.7402C18.6244 28.2625 18.8508 29.2193 19.138 30.1978C19.4252 31.1763 19.7664 32.1475 19.9514 32.6958C20.1365 33.2441 20.1551 33.34 20.1387 33.3874C20.1223 33.4348 20.0703 33.4308 20.0194 33.4142C19.9155 33.3804 19.7151 33.194 19.3884 32.8528C19.208 32.6644 19.0336 32.4123 18.8858 32.1905C18.6162 31.7861 18.469 31.4585 18.3429 31.0916C18.1353 30.4871 18.0688 30.0647 18.0467 29.9962C17.9895 29.8189 17.9102 29.62 17.8312 29.4336C17.7982 29.3569 17.7604 29.283 17.7192 29.2116C17.6999 29.1759 17.684 29.1416 17.6462 29.0705" stroke="black" stroke-width="2" stroke-linecap="round"/>
<path d="M29.098 34.9419C29.0808 34.9419 28.9279 34.9475 28.2152 35.0485C27.6444 35.1295 26.6579 35.3292 25.9022 35.4274C25.1465 35.5256 24.6537 35.5312 24.3803 35.5319C23.9461 35.5329 23.6805 35.3646 23.4834 35.2799C23.1952 35.1561 22.9813 35.1384 22.6421 35.0693C22.4292 35.0259 22.038 34.9439 21.742 34.868C21.0169 34.682 20.7757 34.5382 20.5112 34.4442C20.143 34.3133 19.6882 34.1709 19.5707 34.0965C19.5619 34.091 19.6089 34.0847 19.6389 34.102C19.7058 34.1404 19.7458 34.2385 19.841 34.3875C20.015 34.66 20.2298 34.9984 20.3829 35.2923C20.5197 35.5548 20.5632 35.6725 20.6382 35.8713C20.7525 36.174 20.9398 36.5808 20.9911 36.6902C21.0412 36.797 21.1023 36.9414 21.1291 37.0877C21.1589 37.2501 21.1084 37.397 21.0813 37.5383C21.0552 37.6749 20.985 37.8021 20.9286 37.9001C20.9145 37.9245 20.8825 37.9342 20.8815 37.9495C20.8789 37.9895 21.2186 38.0052 21.815 37.9788C22.8334 37.9336 22.9365 37.7663 23.1446 37.7337C23.2887 37.7112 23.4072 37.6809 23.5526 37.6543C23.7543 37.6174 23.991 37.5527 24.3118 37.4709C25.2074 37.2423 25.4402 37.166 25.6264 37.125C25.8739 37.0706 25.9912 37.0368 26.3935 36.97C26.7296 36.9141 27.3372 36.8353 27.7484 36.761C28.6437 36.5994 28.8158 36.4267 28.9229 36.3656C28.9776 36.3345 29.0088 36.2814 29.0282 36.2258C29.0382 36.1973 29.0485 36.1682 29.0326 36.1484C29.0168 36.1287 28.9744 36.1192 28.9197 36.1266C28.865 36.134 28.7992 36.1584 28.2907 36.3736C27.7822 36.5887 26.833 36.9937 26.3125 37.2126C25.7313 37.4571 25.5893 37.4891 25.4506 37.52C25.3363 37.5455 25.2003 37.5856 25.015 37.6347C24.8038 37.6906 24.2889 37.7133 23.6551 37.7042C23.1947 37.6976 22.8893 37.4157 22.6708 37.1853C22.5256 37.0321 22.5059 36.7739 22.4859 36.5771C22.4502 36.2238 22.5727 36.0081 22.7108 35.8304C22.8621 35.6357 23.253 35.4993 23.6988 35.4187C24.052 35.3549 24.2939 35.4219 24.2979 35.4575C24.3097 35.5607 23.7196 35.6471 23.0572 35.8061C22.7667 35.8758 22.6695 35.8987 22.5973 35.9334C22.5668 35.948 22.5664 35.9841 22.5956 36.0326C22.8676 36.3037 23.359 36.5986 23.6305 36.7C23.6722 36.7109 23.7059 36.7175 23.813 36.7329" stroke="black" stroke-width="2" stroke-linecap="round"/>
<path d="M32.3614 29.1573C32.3614 29.1277 32.3758 29.0592 32.6161 28.6678C32.8288 28.3212 33.2784 27.7078 33.5966 27.2824C34.0828 26.6323 34.3149 26.4061 34.3354 26.3951C34.3466 26.3891 34.3102 26.4576 34.2808 26.5049C34.2514 26.5523 34.2176 26.5957 33.4475 27.7545C32.6775 28.9132 31.1723 31.1858 30.3381 32.4295C29.5038 33.6732 29.3862 33.819 29.3113 33.9082C29.2108 34.0282 29.151 34.0689 29.0926 34.0898C29.0328 34.1113 28.9704 34.0808 28.9159 34.0425C28.852 33.9976 28.7817 33.905 28.7066 33.7236C28.5876 33.4364 28.6258 32.9554 28.6461 32.4435C28.6556 32.2044 28.707 32.01 28.8739 31.5557C29.0408 31.1015 29.3326 30.3939 29.6933 29.6997C30.054 29.0055 30.4747 28.3462 30.7913 27.8921C31.108 27.438 31.3078 27.2092 31.5286 26.993C31.7493 26.7768 31.985 26.5801 32.1262 26.4661C32.2674 26.3521 32.3069 26.3268 31.5926 27.3379C30.8783 28.3491 29.4089 30.3975 28.4855 31.7357C27.5621 33.074 27.2292 33.64 27.0504 33.9487C26.8532 34.2895 26.8061 34.375 26.7679 34.4268C26.7654 34.4303 26.7997 34.3892 27.5323 33.9459C28.2648 33.5025 29.6954 32.6586 30.6795 32.0269C31.6636 31.3952 32.158 31.0012 32.6186 30.5706C33.0793 30.1401 33.4911 29.6849 33.7115 29.4361C34.1048 28.9919 34.3233 28.5668 34.3995 28.4469C34.4787 28.3225 34.5776 28.2115 34.6898 28.136C34.7138 28.1198 34.7439 28.169 34.7526 28.2049C34.7612 28.2408 34.7525 28.2797 34.4064 29.0437C34.0602 29.8076 33.3769 31.2953 32.8649 32.3143C32.353 33.3333 32.0332 33.8386 31.8205 34.1547C31.3767 34.8142 31.0621 34.9638 30.9071 35.0561C30.6387 35.216 30.4766 35.241 30.3502 35.2922C30.2909 35.3163 30.237 35.3447 30.1965 35.3548C30.1795 35.3591 30.1717 35.3212 30.5309 34.658C30.89 33.9948 31.6169 32.697 31.9793 32.0515C32.3417 31.4059 32.3176 31.4518 32.2268 31.5855C32.1359 31.7192 31.979 31.9392 31.656 32.4546C31.3331 32.97 30.849 33.774 30.5938 34.2016C30.2917 34.7079 30.23 34.8559 30.067 35.1397C29.9637 35.3196 29.9017 35.4183 29.8079 35.5347C29.7651 35.5878 29.7346 35.6438 29.7266 35.6697C29.6339 35.9702 30.3047 35.0458 30.6037 34.8272C30.9173 34.598 31.3109 34.3911 31.6873 34.1148C31.951 33.9211 32.1447 33.7196 32.2321 33.6105C32.3193 33.5015 32.4387 33.4228 32.6231 33.2889C32.7759 33.178 32.8907 33.0831 33.0071 32.9833C33.2785 32.7504 33.4552 32.5333 33.5786 32.4064C33.717 32.264 33.8111 32.1073 33.9822 31.9156C34.1352 31.7444 34.3109 31.512 34.4681 31.2805C34.7049 30.9318 34.8668 30.68 35.0644 30.3894C35.2402 30.1308 35.4083 29.8758 35.7953 29.2621C35.8964 29.1018 35.9554 28.9995 36.1141 28.7629C36.2727 28.5262 36.5286 28.1581 36.6875 27.9205C37.0218 27.4207 37.0947 27.0925 37.1508 26.9108C37.1666 26.8596 37.1919 26.906 37.2065 26.9772C37.241 27.1454 37.2458 27.4461 37.2191 27.8307C37.1937 28.195 36.9875 28.566 36.7983 28.9326C36.6468 29.2259 36.489 29.3637 36.3878 29.4629C36.2383 29.6095 35.9738 29.86 35.6636 30.1674C35.2836 30.5438 35.1452 30.7655 34.9964 30.9469C34.8378 31.1403 34.7754 31.2632 34.7034 31.3438C34.694 31.3543 34.6799 31.315 34.675 31.2669C34.6702 31.2189 34.6702 31.1516 35.014 30.1088C35.3578 29.0661 36.0455 27.0499 36.4338 25.8734C36.822 24.6969 36.89 24.4212 36.9408 24.1561C36.9915 23.8911 37.023 23.645 35.7865 25.1242C34.55 26.6034 32.0446 29.8154 30.7241 31.4956C29.4036 33.1759 29.3439 33.2271 29.2987 33.2599C29.2535 33.2928 29.2245 33.3058 29.1908 33.3141C29.1572 33.3223 29.1197 33.3254 29.0856 33.304C28.9194 33.1996 28.9224 32.9314 28.9024 32.5265C28.8882 32.2408 28.8955 31.7909 29.0101 31.2129C29.1247 30.6348 29.3538 29.9418 29.543 29.4374C29.7322 28.9329 29.8745 28.638 30.112 28.2446C30.3495 27.8512 30.6778 27.3683 31.2503 26.6752C31.8228 25.9822 32.6294 25.0937 33.1543 24.5449C33.6793 23.9961 33.898 23.814 34.0779 23.6703C34.2579 23.5266 34.3925 23.427 34.4594 23.3911C34.5264 23.3551 34.5215 23.3858 34.5166 23.4808C34.5117 23.5757 34.5068 23.734 34.4597 24.0225C34.4126 24.311 34.3234 24.7249 34.2242 25.0732C34.1249 25.4215 34.0182 25.6916 33.907 25.9398C33.6956 26.4117 33.4546 26.8004 33.274 27.069C33.1905 27.1932 33.1521 27.2375 33.1155 27.2822C33.0296 27.3872 32.7789 27.363 32.5449 27.2924C32.2161 27.1933 31.8437 26.8562 31.4876 26.5195C31.2088 26.2067 31.0448 25.9816 30.9736 25.8597C30.9443 25.8094 30.9289 25.7824 30.9129 25.7546" stroke="black" stroke-width="2" stroke-linecap="round"/>
<path d="M35.1152 6.73535C35.0955 6.76232 35.0224 6.89098 34.9092 7.15228C34.7532 7.51241 34.6623 7.78968 34.643 7.86503C34.6336 7.90175 34.6201 7.93405 34.489 9.02855C34.3578 10.123 34.1081 12.2784 33.9795 13.7978C33.8508 15.3172 33.8508 16.1353 33.8566 16.598C33.8623 17.0606 33.8737 17.143 33.8824 17.2009C33.8911 17.2588 33.8968 17.2899 33.9229 17.1457C33.949 17.0016 33.9955 16.6814 34.2327 15.4044C34.47 14.1273 34.8966 11.903 35.1394 10.6907C35.3822 9.47849 35.4282 9.34568 35.4601 9.26297C35.5284 9.08586 35.5783 8.95791 35.6554 8.72747C35.7395 8.47593 35.7552 8.28357 35.8135 8.01287C35.8313 7.92988 35.8556 7.84492 35.8877 7.82322C35.9516 7.78012 36.2635 8.2695 36.6876 8.90966C36.9415 9.29276 37.0332 9.59353 37.1205 9.82998C37.2047 10.0582 37.2505 10.215 37.4129 10.6982C37.5645 11.1497 37.8671 12.0164 38.1868 13.0714C38.5066 14.1265 38.8369 15.3429 39.0095 15.7675C39.182 16.1922 39.1866 15.7884 39.107 15.1086C39.0273 14.4288 38.8631 13.4852 38.6543 12.6526C38.4455 11.8201 38.197 11.1273 38.0336 10.6975C37.7317 9.90356 37.5945 9.6771 37.5017 9.45452C37.4324 9.28801 37.3638 9.15691 37.3136 9.03553C37.2836 8.96293 37.2519 8.88286 37.227 8.80731C37.2156 8.77274 37.2031 8.74708 37.2422 8.80781C37.2813 8.86854 37.3715 9.01677 37.4988 9.27659C37.6261 9.53641 37.7878 9.90333 38.1367 11.1382C38.4856 12.3731 39.0169 14.4648 39.3158 16.232C39.6146 17.9991 39.665 19.3783 39.672 20.0854C39.679 20.7926 39.641 20.7859 39.6008 20.7687C39.5606 20.7515 39.5194 20.7239 39.3559 20.5644C39.1925 20.4049 38.9081 20.1141 38.5862 19.6601C38.2644 19.2061 37.9136 18.5977 37.6252 17.9618C37.3368 17.3259 37.1214 16.6811 36.8907 15.4624C36.66 14.2437 36.4206 12.4707 36.2958 11.5725C36.1709 10.6744 36.1678 10.7048 36.1973 11.9548C36.2267 13.2048 36.2888 15.6735 36.3686 17.1596C36.4483 18.6457 36.5438 19.0743 36.3507 18.1941C36.1575 17.314 35.6729 15.1121 35.3997 13.7439C35.1265 12.3758 35.0794 11.908 35.0552 11.6405C35.0124 11.1679 34.994 10.8335 35.017 10.7213C35.0237 10.6889 35.0861 10.9326 35.1286 11.1656C35.1711 11.3985 35.2087 11.6711 35.296 13.0607C35.3833 14.4502 35.5192 16.9485 35.6356 18.5124C35.7519 20.0763 35.8446 20.6302 35.878 20.8926C35.9115 21.155 35.883 21.1091 35.8526 21.0423C35.6873 20.6793 35.654 20.2846 35.6177 19.8927C35.5462 19.1217 35.5313 18.5958 35.506 18.548C35.4935 18.5244 35.4559 18.5214 35.4276 18.5296C35.3993 18.5378 35.3748 18.5623 35.2814 18.7474C35.188 18.9324 35.0263 19.2773 34.8245 19.8127C34.6226 20.348 34.3855 21.0634 34.2596 21.4131C34.1337 21.7628 34.1262 21.725 34.1317 21.3159C34.1373 20.9068 34.1561 20.1276 34.2046 19.501C34.2531 18.8745 34.3307 18.4243 34.2109 18.7107C34.0911 18.9972 33.7714 20.0339 33.5802 20.6863C33.389 21.3386 33.336 21.5752 33.2751 20.8515C33.2143 20.1279 33.1472 18.437 33.0964 17.4684C33.0456 16.4998 33.0131 16.3047 32.9798 16.1448C32.8891 15.7088 32.7893 15.5349 32.7155 15.3762C32.7001 15.3431 32.6717 15.3187 32.6429 15.3047C32.6141 15.2907 32.5808 15.2907 32.5528 15.308C32.4917 15.3458 32.3413 15.7552 32.0963 16.4146C31.9857 16.7125 31.9239 16.9435 31.8844 17.049C31.8449 17.1544 31.835 17.1292 31.8289 16.4585C31.8228 15.7878 31.8207 14.4724 31.8232 13.773C31.8257 13.0736 31.8328 13.0302 31.8489 13.0594C31.865 13.0887 31.8899 13.1919 31.9368 14.6231C31.9837 16.0543 32.0518 18.8102 32.0962 20.2967C32.1406 21.7832 32.1591 21.9168 32.173 22.0004C32.1869 22.0841 32.1956 22.1138 32.1869 22.053C32.1782 21.9922 32.1519 21.8399 32.1357 21.5021C32.1195 21.1643 32.1142 20.6455 32.1206 20.3321C32.1288 19.9259 32.1776 19.7811 32.1935 19.7356C32.1954 19.7304 32.1868 19.8023 32.0201 20.196C31.8533 20.5896 31.5292 21.3132 31.3471 21.6866C31.1651 22.06 31.1349 22.0612 31.108 22.0506C30.9463 21.9863 30.8215 21.742 30.6644 21.5372C30.5596 21.4005 30.4279 21.228 30.3305 21.1158C30.2229 20.9919 30.1215 20.7533 30.0508 20.6329C30.0178 20.6746 29.979 20.7759 29.9315 20.9046C29.9056 20.9691 29.8758 21.0317 29.8179 21.1722" stroke="black" stroke-width="2" stroke-linecap="round"/>
<path d="M38.3264 16.0581C38.3264 16.0623 38.3264 16.0664 38.3428 16.5448C38.3591 17.0232 38.3919 17.9757 38.4106 18.4798C38.4304 19.0108 38.4371 19.0983 38.4385 19.2525C38.4405 19.4735 38.4196 19.7208 38.3199 20.596C38.2338 21.353 38.1262 22.7505 38.05 23.5373C37.9605 24.4609 37.9112 24.6443 37.8981 24.7439C37.8829 24.8589 37.8615 24.9492 37.865 24.977C37.8658 24.9836 37.8878 24.9439 38.0351 24.7176C38.1824 24.4913 38.4601 24.0715 38.6352 23.7912C38.8859 23.3898 38.9605 23.1897 39.0441 22.9646C39.3167 22.2302 39.3859 22.071 39.5216 21.8383C39.5402 21.8062 39.5652 21.849 39.5703 21.9194C39.5753 21.9898 39.5704 22.0961 39.4234 22.7882C39.2763 23.4803 38.9871 24.755 38.7778 25.5429C38.5685 26.3307 38.4478 26.593 38.3194 26.8387C37.9044 27.6323 37.7372 27.791 37.6792 27.8079C37.6163 27.8263 37.5475 27.7578 37.4919 27.6969C37.4651 27.6676 37.4534 27.6315 37.4441 27.45C37.4347 27.2684 37.4311 26.94 37.5289 26.1838C37.6266 25.4275 37.8258 24.2535 37.9384 23.338C38.051 22.4224 38.071 21.8009 38.0793 21.4644C38.0906 21.0013 38.0162 20.8214 37.9458 20.6652C37.9296 20.6292 37.915 20.6058 37.8937 20.65C37.8725 20.6941 37.8437 20.8071 37.4482 21.8201C37.0528 22.8332 36.2916 24.7428 35.8904 25.7579C35.4892 26.7729 35.471 26.8354 35.4488 26.8478C35.4265 26.8603 35.4008 26.8208 35.3619 26.6965C35.323 26.5722 35.2716 26.3644 35.217 25.3543C35.1623 24.3442 35.1058 22.5381 35.1211 21.3458C35.1364 20.1535 35.2252 19.6297 35.2976 19.2931C35.4522 18.5746 35.7029 18.3301 35.8092 18.2147C35.8305 18.1917 35.8606 18.1858 35.8877 18.1818C35.9147 18.1779 35.9417 18.1805 35.9699 18.1964C36.1309 18.2875 36.2025 18.5775 36.2688 19.0056C36.3172 19.3174 36.3278 19.8299 36.2308 20.5103C36.1337 21.1907 35.9114 22.0257 35.7863 22.5228C35.6611 23.02 35.64 23.154 35.6754 23.1252C35.7108 23.0964 35.8035 22.9007 36.2506 22.2274C36.6978 21.5542 37.4966 20.4094 37.9132 19.8063C38.3298 19.2032 38.3401 19.1766 38.3303 19.1725C38.3204 19.1683 38.2901 19.1874 38.2615 19.2124C38.2329 19.2374 38.2068 19.2677 36.8693 20.7568C35.5318 22.2459 32.8835 25.1928 31.3446 26.8493C29.8057 28.5059 29.4565 28.7828 29.2444 28.9445C28.9733 29.1513 28.8597 29.1968 28.7894 29.195C28.7188 29.1932 28.736 28.8974 28.9598 27.9471C29.1404 27.1807 29.6314 25.8838 30.0186 24.932C30.4058 23.9801 30.7189 23.4245 31.0315 22.9373C31.3442 22.45 31.6469 22.0481 31.9714 21.6771C32.2958 21.3062 32.6328 20.9785 32.8805 20.7556C33.2641 20.4104 33.4784 20.2901 33.5592 20.2842C33.5949 20.2815 33.6031 20.3591 33.5861 20.4268C33.5691 20.4946 33.5224 20.5705 32.8358 21.4652C32.1492 22.3598 30.8241 24.0709 30.1511 24.9428C29.4782 25.8146 29.4975 25.7954 30.2371 25.2068C30.9767 24.6182 32.4361 23.4609 33.1956 22.8885C33.9551 22.316 33.9706 22.3634 33.9698 22.4073C33.9684 22.4921 33.7447 22.8373 33.4402 23.3399C33.2172 23.708 33.1739 23.8045 33.1495 23.8335C33.1434 23.7999 33.2174 23.6351 33.3389 23.4088C33.3881 23.3137 33.4121 23.2584 33.4368 23.2015" stroke="black" stroke-width="2" stroke-linecap="round"/>
<path d="M28.2347 3.98499C28.2224 4.01919 28.1277 4.29658 27.9411 4.57642C27.8855 4.65985 27.8261 4.69349 27.7682 4.71712C27.7369 4.72987 27.6958 4.72515 27.6637 4.71349C27.6021 4.69108 27.5264 4.48607 27.4291 4.15361C27.338 3.84244 27.3503 3.43961 27.3629 3.04996C27.3679 2.89561 27.4008 2.83111 27.4228 2.78415C27.4448 2.7372 27.4627 2.7102 27.479 2.73059C27.4954 2.75099 27.5095 2.81959 27.3875 3.18842C27.2654 3.55724 27.0066 4.22421 26.8603 4.564C26.714 4.90379 26.6881 4.89619 26.6696 4.87113C26.6261 4.81223 26.6358 4.52381 26.7219 3.9899C26.771 3.68565 26.9579 3.3411 27.1866 2.89286C27.4153 2.44462 27.7127 1.9101 27.888 1.60412C28.1006 1.23291 28.1743 1.15517 28.2593 1.12566C28.5496 1.02495 28.7493 1.17426 28.9369 1.27184C29.1103 1.36207 29.1692 1.54326 29.2748 1.85163C29.3497 2.07035 29.4321 2.42688 29.6435 3.80323C29.855 5.17957 30.1837 7.56786 30.3939 9.24746C30.604 10.9271 30.6856 11.8256 30.7393 12.3353C30.7929 12.8449 30.8161 12.9384 30.8317 12.9614C30.8517 12.991 30.8824 12.4267 30.9299 11.6183C30.9506 11.2647 30.9896 11.0276 31.0065 10.7928C31.0395 10.3342 31.0195 10.0749 31.0092 10.0177C31.0037 9.98709 30.9936 9.95416 31.1139 10.3273C31.2342 10.7004 31.4842 11.4807 31.6174 11.8995C31.7506 12.3182 31.7595 12.3517 31.7626 12.3497C31.7657 12.3476 31.7627 12.309 31.7015 12.0409C31.6402 11.7729 31.5208 11.2767 31.2276 10.355C30.9344 9.4333 30.4708 8.10122 30.2239 7.39867C29.977 6.69612 29.9606 6.66345 29.9109 6.53683C29.8612 6.41022 29.7786 6.19064 29.5616 5.77836C29.3445 5.36608 28.9955 4.76775 28.8096 4.44319C28.5825 4.01964 28.448 3.68009 28.3339 3.38414C28.3184 3.3415 28.3113 3.31422 28.2897 3.22766" stroke="black" stroke-width="2" stroke-linecap="round"/>
<path d="M66.5821 19.036H63.4713C63.4145 18.6335 63.2985 18.2761 63.1233 17.9636C62.9481 17.6463 62.7232 17.3764 62.4486 17.1539C62.174 16.9314 61.8568 16.7609 61.4969 16.6425C61.1418 16.5242 60.7559 16.465 60.3392 16.465C59.5864 16.465 58.9306 16.652 58.3719 17.0261C57.8132 17.3954 57.38 17.9352 57.0722 18.6454C56.7644 19.3509 56.6106 20.2079 56.6106 21.2164C56.6106 22.2533 56.7644 23.1246 57.0722 23.83C57.3847 24.5355 57.8203 25.0682 58.379 25.4281C58.9377 25.7879 59.584 25.9678 60.3179 25.9678C60.7299 25.9678 61.111 25.9134 61.4614 25.8045C61.8165 25.6956 62.1314 25.537 62.406 25.3286C62.6806 25.1156 62.9079 24.8575 63.0878 24.5545C63.2725 24.2514 63.4003 23.9058 63.4713 23.5175L66.5821 23.5317C66.5017 24.1994 66.3004 24.8433 65.9784 25.4636C65.6612 26.0791 65.2327 26.6307 64.6929 27.1184C64.1579 27.6014 63.5187 27.9849 62.7753 28.269C62.0367 28.5483 61.201 28.688 60.2682 28.688C58.9709 28.688 57.8108 28.3944 56.7881 27.8073C55.7701 27.2202 54.9652 26.3703 54.3733 25.2576C53.7862 24.1449 53.4927 22.7978 53.4927 21.2164C53.4927 19.6302 53.7909 18.2808 54.3875 17.1681C54.9841 16.0554 55.7938 15.2079 56.8165 14.6255C57.8392 14.0384 58.9898 13.7448 60.2682 13.7448C61.111 13.7448 61.8923 13.8632 62.612 14.0999C63.3364 14.3367 63.978 14.6823 64.5367 15.1369C65.0954 15.5867 65.5499 16.1383 65.9003 16.7917C66.2554 17.4451 66.4827 18.1932 66.5821 19.036ZM68.5306 28.4891V17.58H71.4638V19.4835H71.5775C71.7763 18.8064 72.1101 18.295 72.5789 17.9494C73.0476 17.599 73.5874 17.4238 74.1982 17.4238C74.3497 17.4238 74.5131 17.4333 74.6883 17.4522C74.8634 17.4711 75.0173 17.4972 75.1499 17.5303V20.215C75.0079 20.1724 74.8114 20.1345 74.5604 20.1014C74.3095 20.0682 74.0798 20.0516 73.8715 20.0516C73.4264 20.0516 73.0287 20.1487 72.6783 20.3428C72.3327 20.5322 72.058 20.7974 71.8544 21.1383C71.6556 21.4792 71.5561 21.8722 71.5561 22.3173V28.4891H68.5306ZM76.5142 28.4891V17.58H79.5397V28.4891H76.5142ZM78.0341 16.1738C77.5842 16.1738 77.1984 16.0246 76.8764 15.7264C76.5592 15.4233 76.4005 15.0611 76.4005 14.6397C76.4005 14.223 76.5592 13.8656 76.8764 13.5673C77.1984 13.2642 77.5842 13.1127 78.0341 13.1127C78.4839 13.1127 78.8674 13.2642 79.1846 13.5673C79.5066 13.8656 79.6676 14.223 79.6676 14.6397C79.6676 15.0611 79.5066 15.4233 79.1846 15.7264C78.8674 16.0246 78.4839 16.1738 78.0341 16.1738ZM90.8401 20.6908L88.0702 20.8613C88.0229 20.6246 87.9211 20.4115 87.7648 20.2221C87.6086 20.028 87.4026 19.8741 87.1469 19.7604C86.896 19.6421 86.5953 19.5829 86.2449 19.5829C85.7762 19.5829 85.3808 19.6823 85.0588 19.8812C84.7369 20.0753 84.5759 20.3357 84.5759 20.6624C84.5759 20.9228 84.6801 21.143 84.8884 21.3229C85.0967 21.5029 85.4542 21.6473 85.9608 21.7562L87.9353 22.1539C88.9959 22.3717 89.7866 22.7221 90.3074 23.205C90.8283 23.688 91.0887 24.3225 91.0887 25.1085C91.0887 25.8234 90.878 26.4508 90.4566 26.9906C90.0399 27.5303 89.467 27.9517 88.7378 28.2548C88.0134 28.5531 87.1777 28.7022 86.2307 28.7022C84.7866 28.7022 83.636 28.4015 82.779 27.8002C81.9267 27.1942 81.4272 26.3703 81.2804 25.3286L84.2563 25.1724C84.3463 25.6127 84.5641 25.9489 84.9097 26.1809C85.2553 26.4082 85.6981 26.5218 86.2378 26.5218C86.7681 26.5218 87.1943 26.42 87.5162 26.2164C87.8429 26.0081 88.0087 25.7406 88.0134 25.4139C88.0087 25.1392 87.8927 24.9143 87.6654 24.7391C87.4381 24.5592 87.0877 24.4219 86.6142 24.3272L84.725 23.9508C83.6597 23.7377 82.8666 23.3684 82.3458 22.8428C81.8297 22.3173 81.5716 21.6473 81.5716 20.8329C81.5716 20.1321 81.761 19.5284 82.1398 19.0218C82.5233 18.5152 83.0607 18.1246 83.752 17.8499C84.4481 17.5753 85.2624 17.438 86.1952 17.438C87.5731 17.438 88.6573 17.7292 89.4481 18.3116C90.2435 18.894 90.7075 19.6871 90.8401 20.6908ZM92.7939 28.4891V17.58H95.8194V28.4891H92.7939ZM94.3137 16.1738C93.8639 16.1738 93.478 16.0246 93.1561 15.7264C92.8388 15.4233 92.6802 15.0611 92.6802 14.6397C92.6802 14.223 92.8388 13.8656 93.1561 13.5673C93.478 13.2642 93.8639 13.1127 94.3137 13.1127C94.7636 13.1127 95.1471 13.2642 95.4643 13.5673C95.7863 13.8656 95.9473 14.223 95.9473 14.6397C95.9473 15.0611 95.7863 15.4233 95.4643 15.7264C95.1471 16.0246 94.7636 16.1738 94.3137 16.1738ZM107.12 20.6908L104.35 20.8613C104.303 20.6246 104.201 20.4115 104.045 20.2221C103.888 20.028 103.682 19.8741 103.427 19.7604C103.176 19.6421 102.875 19.5829 102.525 19.5829C102.056 19.5829 101.661 19.6823 101.339 19.8812C101.017 20.0753 100.856 20.3357 100.856 20.6624C100.856 20.9228 100.96 21.143 101.168 21.3229C101.376 21.5029 101.734 21.6473 102.241 21.7562L104.215 22.1539C105.276 22.3717 106.066 22.7221 106.587 23.205C107.108 23.688 107.368 24.3225 107.368 25.1085C107.368 25.8234 107.158 26.4508 106.736 26.9906C106.32 27.5303 105.747 27.9517 105.018 28.2548C104.293 28.5531 103.457 28.7022 102.51 28.7022C101.066 28.7022 99.9157 28.4015 99.0587 27.8002C98.2064 27.1942 97.7069 26.3703 97.5601 25.3286L100.536 25.1724C100.626 25.6127 100.844 25.9489 101.189 26.1809C101.535 26.4082 101.978 26.5218 102.518 26.5218C103.048 26.5218 103.474 26.42 103.796 26.2164C104.123 26.0081 104.288 25.7406 104.293 25.4139C104.288 25.1392 104.172 24.9143 103.945 24.7391C103.718 24.5592 103.367 24.4219 102.894 24.3272L101.005 23.9508C99.9394 23.7377 99.1463 23.3684 98.6255 22.8428C98.1094 22.3173 97.8513 21.6473 97.8513 20.8329C97.8513 20.1321 98.0407 19.5284 98.4195 19.0218C98.803 18.5152 99.3404 18.1246 100.032 17.8499C100.728 17.5753 101.542 17.438 102.475 17.438C103.853 17.438 104.937 17.7292 105.728 18.3116C106.523 18.894 106.987 19.6871 107.12 20.6908ZM127.193 19.036H124.082C124.025 18.6335 123.909 18.2761 123.734 17.9636C123.559 17.6463 123.334 17.3764 123.06 17.1539C122.785 16.9314 122.468 16.7609 122.108 16.6425C121.753 16.5242 121.367 16.465 120.95 16.465C120.197 16.465 119.542 16.652 118.983 17.0261C118.424 17.3954 117.991 17.9352 117.683 18.6454C117.375 19.3509 117.221 20.2079 117.221 21.2164C117.221 22.2533 117.375 23.1246 117.683 23.83C117.996 24.5355 118.431 25.0682 118.99 25.4281C119.549 25.7879 120.195 25.9678 120.929 25.9678C121.341 25.9678 121.722 25.9134 122.072 25.8045C122.427 25.6956 122.742 25.537 123.017 25.3286C123.292 25.1156 123.519 24.8575 123.699 24.5545C123.883 24.2514 124.011 23.9058 124.082 23.5175L127.193 23.5317C127.113 24.1994 126.911 24.8433 126.589 25.4636C126.272 26.0791 125.844 26.6307 125.304 27.1184C124.769 27.6014 124.13 27.9849 123.386 28.269C122.648 28.5483 121.812 28.688 120.879 28.688C119.582 28.688 118.422 28.3944 117.399 27.8073C116.381 27.2202 115.576 26.3703 114.984 25.2576C114.397 24.1449 114.104 22.7978 114.104 21.2164C114.104 19.6302 114.402 18.2808 114.998 17.1681C115.595 16.0554 116.405 15.2079 117.427 14.6255C118.45 14.0384 119.601 13.7448 120.879 13.7448C121.722 13.7448 122.503 13.8632 123.223 14.0999C123.947 14.3367 124.589 14.6823 125.148 15.1369C125.706 15.5867 126.161 16.1383 126.511 16.7917C126.866 17.4451 127.094 18.1932 127.193 19.036ZM134.07 28.7022C132.967 28.7022 132.013 28.4678 131.208 27.9991C130.408 27.5256 129.79 26.8675 129.355 26.0246C128.919 25.1771 128.701 24.1946 128.701 23.0772C128.701 21.9503 128.919 20.9655 129.355 20.1227C129.79 19.2751 130.408 18.617 131.208 18.1482C132.013 17.6747 132.967 17.438 134.07 17.438C135.174 17.438 136.125 17.6747 136.926 18.1482C137.731 18.617 138.351 19.2751 138.786 20.1227C139.222 20.9655 139.44 21.9503 139.44 23.0772C139.44 24.1946 139.222 25.1771 138.786 26.0246C138.351 26.8675 137.731 27.5256 136.926 27.9991C136.125 28.4678 135.174 28.7022 134.07 28.7022ZM134.085 26.3585C134.587 26.3585 135.006 26.2164 135.342 25.9323C135.678 25.6435 135.931 25.2505 136.102 24.7533C136.277 24.2562 136.365 23.6904 136.365 23.0559C136.365 22.4214 136.277 21.8556 136.102 21.3585C135.931 20.8613 135.678 20.4683 135.342 20.1795C135.006 19.8907 134.587 19.7462 134.085 19.7462C133.578 19.7462 133.152 19.8907 132.806 20.1795C132.465 20.4683 132.207 20.8613 132.032 21.3585C131.862 21.8556 131.776 22.4214 131.776 23.0559C131.776 23.6904 131.862 24.2562 132.032 24.7533C132.207 25.2505 132.465 25.6435 132.806 25.9323C133.152 26.2164 133.578 26.3585 134.085 26.3585ZM144.233 22.1823V28.4891H141.207V17.58H144.091V19.5048H144.219C144.46 18.8703 144.865 18.3684 145.433 17.9991C146.001 17.625 146.69 17.438 147.5 17.438C148.257 17.438 148.918 17.6037 149.481 17.9352C150.045 18.2666 150.483 18.7401 150.795 19.3556C151.108 19.9664 151.264 20.6956 151.264 21.5431V28.4891H148.238V22.0829C148.243 21.4153 148.073 20.8944 147.727 20.5204C147.381 20.1416 146.906 19.9522 146.299 19.9522C145.892 19.9522 145.532 20.0398 145.22 20.215C144.912 20.3902 144.671 20.6459 144.495 20.982C144.325 21.3135 144.237 21.7136 144.233 22.1823ZM156.474 22.1823V28.4891H153.449V17.58H156.332V19.5048H156.46C156.701 18.8703 157.106 18.3684 157.674 17.9991C158.243 17.625 158.932 17.438 159.741 17.438C160.499 17.438 161.159 17.6037 161.723 17.9352C162.286 18.2666 162.724 18.7401 163.037 19.3556C163.349 19.9664 163.505 20.6956 163.505 21.5431V28.4891H160.48V22.0829C160.485 21.4153 160.314 20.8944 159.968 20.5204C159.623 20.1416 159.147 19.9522 158.541 19.9522C158.134 19.9522 157.774 20.0398 157.461 20.215C157.154 20.3902 156.912 20.6459 156.737 20.982C156.566 21.3135 156.479 21.7136 156.474 22.1823ZM170.662 28.7022C169.539 28.7022 168.573 28.4749 167.764 28.0204C166.959 27.5611 166.339 26.9124 165.903 26.0744C165.467 25.2316 165.25 24.2349 165.25 23.0843C165.25 21.9621 165.467 20.9773 165.903 20.1298C166.339 19.2822 166.952 18.6217 167.743 18.1482C168.538 17.6747 169.471 17.438 170.541 17.438C171.261 17.438 171.93 17.554 172.551 17.786C173.176 18.0133 173.72 18.3566 174.184 18.8158C174.653 19.2751 175.018 19.8528 175.278 20.5488C175.538 21.2401 175.669 22.0497 175.669 22.9778V23.8087H166.457V21.9337H172.821C172.821 21.4981 172.726 21.1122 172.537 20.7761C172.347 20.4399 172.084 20.1771 171.748 19.9877C171.417 19.7936 171.031 19.6965 170.591 19.6965C170.131 19.6965 169.724 19.8031 169.369 20.0161C169.019 20.2245 168.744 20.5062 168.545 20.8613C168.346 21.2117 168.244 21.6023 168.24 22.0332V23.8158C168.24 24.3556 168.339 24.822 168.538 25.215C168.742 25.608 169.028 25.911 169.397 26.1241C169.767 26.3371 170.205 26.4437 170.711 26.4437C171.047 26.4437 171.355 26.3963 171.635 26.3016C171.914 26.2069 172.153 26.0649 172.352 25.8755C172.551 25.6861 172.702 25.4541 172.806 25.1795L175.605 25.3641C175.463 26.0365 175.171 26.6236 174.731 27.1255C174.296 27.6227 173.732 28.0109 173.041 28.2903C172.354 28.5649 171.561 28.7022 170.662 28.7022ZM182.372 28.7022C181.255 28.7022 180.293 28.4655 179.489 27.992C178.688 27.5138 178.073 26.8509 177.642 26.0033C177.216 25.1558 177.003 24.1804 177.003 23.0772C177.003 21.9598 177.218 20.9797 177.649 20.1369C178.085 19.2893 178.703 18.6288 179.503 18.1553C180.303 17.6771 181.255 17.438 182.358 17.438C183.31 17.438 184.143 17.6108 184.858 17.9565C185.573 18.3021 186.139 18.7874 186.555 19.4124C186.972 20.0374 187.202 20.7713 187.244 21.6141H184.389C184.309 21.0696 184.096 20.6317 183.75 20.3002C183.409 19.964 182.962 19.796 182.408 19.796C181.939 19.796 181.529 19.9238 181.179 20.1795C180.833 20.4304 180.563 20.7974 180.369 21.2803C180.175 21.7633 180.078 22.348 180.078 23.0346C180.078 23.7306 180.173 24.3225 180.362 24.8102C180.556 25.2978 180.828 25.6695 181.179 25.9252C181.529 26.1809 181.939 26.3087 182.408 26.3087C182.753 26.3087 183.063 26.2377 183.338 26.0957C183.617 25.9536 183.847 25.7477 184.027 25.4778C184.212 25.2032 184.332 24.8741 184.389 24.4906H187.244C187.197 25.3239 186.97 26.0578 186.562 26.6923C186.16 27.322 185.604 27.8144 184.893 28.1695C184.183 28.5246 183.343 28.7022 182.372 28.7022ZM194.784 17.58V19.8528H188.214V17.58H194.784ZM189.706 14.9664H192.731V25.1369C192.731 25.4162 192.774 25.634 192.859 25.7903C192.944 25.9418 193.063 26.0483 193.214 26.1099C193.371 26.1714 193.55 26.2022 193.754 26.2022C193.896 26.2022 194.038 26.1904 194.18 26.1667C194.322 26.1383 194.431 26.117 194.507 26.1028L194.983 28.3542C194.831 28.4015 194.618 28.456 194.344 28.5175C194.069 28.5838 193.735 28.6241 193.342 28.6383C192.613 28.6667 191.974 28.5696 191.425 28.3471C190.88 28.1246 190.456 27.7789 190.153 27.3102C189.85 26.8414 189.701 26.2496 189.706 25.5346V14.9664Z" fill="black"/>
</svg>
