<svg width="390" height="41" viewBox="0 0 390 41" fill="none" xmlns="http://www.w3.org/2000/svg">
<path d="M11.2217 1.64597C5.89032 3.65108 -3.36869 11.6599 2.24662 27.6546C2.91486 29.3206 4.95134 32.652 5.75134 32.6512C6.41849 33.1506 7.55249 33.8495 8.75134 32.6484C10.2499 31.1469 7.74464 25.6493 8.74464 25.6484" stroke="black"/>
<path d="M33.0374 15.6294C33.0292 15.5892 32.9981 15.4164 32.9481 15.1377M33.0374 15.6294C33.032 15.606 33.0014 15.4349 32.9481 15.1377M33.0374 15.6294C33.035 15.6974 33.0331 15.768 33.0313 15.8385C33.0299 15.8932 33.0285 15.9477 33.0268 16.001M33.0374 15.6294C33.0339 15.6502 33.0301 15.786 33.0268 16.001M33.0374 15.6294C33.2147 10.7051 33.7733 6.63312 34.9611 6.63198M33.0374 15.6294C32.9696 15.2997 31.3695 6.0441 30.3039 2.58626M33.0374 15.6294L33.0392 15.6338M32.9481 15.1377C32.5875 13.1294 31.2396 5.62259 30.3039 2.58626M32.9481 15.1377C32.588 13.1313 31.2395 5.62244 30.3039 2.58626M30.3039 2.58626C30.1797 2.18321 30.0628 1.85893 29.9564 1.63673C29.5556 0.837118 28.4557 0.971504 27.9559 1.13865C26.1233 1.97374 25.9603 5.74059 25.9626 8.14059C25.9634 9.03653 26.0983 10.1553 26.2472 11.3905C26.5968 14.2913 27.0239 17.8341 25.9745 20.6406C25.1536 22.836 25.146 22.8043 25.1147 22.6753C25.1004 22.6162 25.0812 22.5367 24.9766 22.6415C23.8109 23.6426 20.478 24.2458 20.4746 20.6458C20.4722 18.1289 19.9817 16.2805 19.6865 15.1683C19.5595 14.6896 19.4687 14.3474 19.4685 14.1468C18.9664 11.9806 17.3635 8.94879 14.9685 14.1511C12.5734 19.3534 16.9849 31.3158 19.49 36.6468C19.869 37.5917 20.1411 38.9441 19.5757 39.6467M33.0268 16.001C32.989 17.1829 32.9724 18.4084 32.9736 19.6339C32.9769 23.0883 32.9856 21.6633 32.9982 19.611C33.0062 18.2895 33.0159 16.707 33.0268 16.001ZM33.0268 16.001C33.0299 15.7999 33.036 15.6667 33.0392 15.6338M34.9611 6.63198C34.9608 6.23198 36.2949 7.13071 36.9621 7.63007C40.4645 10.1267 41.4731 19.1258 40.4774 23.6267C39.4817 28.1277 32.66 41.1341 19.5757 39.6467M34.9611 6.63198C33.7737 6.63312 33.2167 10.7114 33.0392 15.6338M19.5757 39.6467C19.1442 40.1829 18.2248 40.3405 16.4927 39.6496C12.4912 38.0535 9.82129 29.1452 8.98413 25.146" stroke="black"/>
<path d="M30.4949 27.83C30.4994 27.83 30.504 27.83 29.7973 28.7115C29.0906 29.593 27.6726 31.3561 26.8191 32.4663C25.9656 33.5766 25.7196 33.9806 25.5471 34.3005C25.2602 34.8322 25.1572 35.1207 25.0559 35.3201C24.9798 35.47 24.8778 35.7304 25.5663 34.7215C26.2549 33.7127 27.7432 31.4297 28.5294 30.2342C29.3155 29.0386 29.3544 28.9997 29.4003 28.9499C29.4461 28.9002 29.4977 28.8409 29.0379 29.2822C28.5781 29.7234 27.6052 30.667 27.0667 31.181C26.2585 31.9526 25.7735 32.3701 25.3552 32.636C25.2578 32.6979 25.154 32.726 25.069 32.7486C24.984 32.7712 24.9153 32.7775 24.8731 32.5648C24.7471 31.9302 24.8321 31.186 25.0152 30.3224C25.1386 29.7408 25.4484 28.8978 25.7093 28.1828C25.9702 27.4679 26.2048 26.9142 26.2848 26.6554C26.3649 26.3966 26.2834 26.4494 25.7705 26.995C25.2576 27.5407 24.3157 28.5775 23.8171 29.0801C23.3185 29.5828 23.2916 29.5198 23.2778 29.4408C23.248 29.2705 23.2939 28.5793 23.3066 27.5874C23.3142 26.9964 23.0585 26.6894 22.8788 26.4801C22.7476 26.3273 22.2164 26.1483 21.388 25.8793C20.3585 25.5449 20.1614 25.2959 19.7988 25.0323C19.423 24.759 19.2508 24.4676 19.187 24.108C19.1455 23.8738 19.172 23.6736 19.1594 23.2166C19.129 22.114 19.1462 21.3001 19.1156 21.1069C19.016 20.6307 18.848 20.0403 18.6538 19.547C18.6168 19.4741 18.5836 19.4237 18.5349 19.3428" stroke="black" stroke-width="2" stroke-linecap="round"/>
<path d="M17.2258 11.8027C17.1821 11.8188 17.0504 11.8934 16.9017 12.0135C16.8245 12.0759 16.6674 12.2305 16.4525 12.4971C16.2371 12.7645 16.1327 13.0745 16.021 13.4175C15.9529 13.6268 15.9038 13.9202 15.8654 14.3815C15.8271 14.8427 15.8118 15.466 15.8073 15.8061C15.8024 16.1843 15.8229 16.2866 15.8392 16.3691C15.844 16.3937 15.8949 16.2564 16.0957 15.5895C16.2734 14.9994 16.6284 13.9053 16.8177 13.2993C17.0731 12.482 17.1134 12.3566 17.153 12.3124C17.252 12.2017 17.4386 12.3978 17.5642 12.53C17.6556 12.6262 17.7026 12.799 17.7844 13.1422C17.9404 13.7967 18.0034 14.2628 18.025 14.3353C18.0585 14.4475 18.1131 14.6629 18.1293 14.8145C18.1501 15.0078 17.9294 14.4144 17.8814 14.2716C17.8709 14.2405 17.8656 14.212 17.9937 14.6788C18.1218 15.1455 18.3841 16.1083 18.5245 16.639C18.665 17.1696 18.6757 17.239 18.7199 17.4768C18.8394 18.1193 18.925 18.5734 18.9384 18.6682C18.9742 18.9216 19.0422 19.0561 19.1111 19.4347C19.1679 19.746 19.1898 19.9584 19.2 19.9699C19.2658 20.0438 19.1498 19.4703 19.0528 18.9639C19.0096 18.7384 18.9702 18.6007 18.8933 18.2747C18.7556 17.6917 18.6274 17.3067 18.5847 17.1776C18.4933 16.9013 18.4398 16.6461 18.4231 16.3486C18.365 15.3126 18.4386 15.2206 18.4634 15.1911C18.4713 15.1817 18.487 15.2163 18.4691 16.312C18.4512 17.4077 18.4036 19.5719 18.4413 20.9878C18.4789 22.4038 18.6033 23.006 18.7214 23.4747C18.9213 24.2674 19.0747 24.6169 19.0926 24.6403C19.1244 24.6818 19.0493 24.4942 18.7865 23.7288C18.5411 23.014 18.0957 21.6275 17.7309 20.1563C17.3662 18.6852 17.1027 17.1691 16.9642 16.3728C16.8204 15.5458 16.8147 15.4865 16.8072 15.4291C16.8033 15.3987 16.785 15.3685 16.7594 16.6532C16.7339 17.9378 16.6982 20.5387 16.705 22.0231C16.7119 23.5075 16.7624 23.7964 16.8322 24.1188C16.902 24.4412 16.9896 24.7882 17.0857 25.0946C17.3604 25.9708 17.4772 26.0774 17.5482 26.1722C17.5574 26.1845 17.5635 26.1088 17.4443 25.0888C17.3251 24.0687 17.0844 22.0856 16.9165 20.7748C16.7487 19.464 16.661 18.8856 16.608 18.0718C16.5549 17.258 16.5392 16.2263 16.541 15.665C16.5433 14.9422 16.6353 14.7868 16.7287 14.4226C16.7628 14.2893 16.7686 14.2073 16.7753 14.15C16.7786 14.1222 16.7603 14.0963 16.722 14.108C16.6085 14.1424 16.4449 14.3514 16.2375 14.6081C16.0483 14.8423 15.8562 15.2619 15.657 15.7573C15.5748 15.9616 15.5497 16.0775 15.5237 16.6425C15.4978 17.2075 15.4766 18.2199 15.5771 19.3261C15.6775 20.4323 15.9003 21.6017 16.0961 22.4252C16.2919 23.2488 16.4539 23.6911 16.5538 23.9541C16.6812 24.2893 16.7392 24.3903 16.7678 24.4197C16.7747 24.4268 16.7781 24.384 16.7721 24.3536C16.7661 24.3232 16.7535 24.2978 16.7423 24.2981C16.6334 24.3005 16.606 24.567 16.5185 24.6649C16.5016 24.6839 16.4679 24.6693 16.4422 24.648C16.3828 24.599 16.3574 24.5229 16.3377 24.505C16.1095 24.2984 16.3304 25.3655 16.386 25.6197C16.4326 25.8324 16.5247 26.0993 16.7118 26.56C16.8361 26.866 17.0092 27.2229 17.0927 27.4052C17.125 27.4758 17.2723 27.8302 17.5147 28.357C17.7135 28.7889 17.7999 28.8428 17.8459 28.86C17.8695 28.8689 17.899 28.8258 17.9439 27.9864C17.9889 27.147 18.0497 25.4993 18.1019 24.6538C18.1542 23.8083 18.1959 23.815 18.2317 23.8266C18.2985 23.8481 18.4836 24.0028 18.837 24.3427C19.0428 24.5406 19.2601 24.8318 19.6034 25.3677C19.9467 25.9036 20.3987 26.6859 20.6086 27.0812C20.8184 27.4765 20.7724 27.461 20.5623 27.2748C20.3522 27.0887 19.9792 26.7323 19.7665 26.5349C19.4138 26.2076 19.1421 26.0309 18.8927 25.8847C18.7613 25.8078 18.6098 25.7436 18.6077 25.9672C18.6055 26.1909 18.7547 26.7091 18.8772 27.0955C19.0768 27.7256 19.2533 28.1003 19.3663 28.3171C19.4102 28.4013 19.4296 28.4317 19.4415 28.4256C19.4534 28.4196 19.4581 28.3759 19.4126 27.6892C19.3672 27.0026 19.2715 25.6743 19.2205 24.9765C19.1675 24.2517 19.1604 24.017 19.1589 23.684C19.1579 23.4395 19.172 23.2406 19.1932 23.0606C19.2005 22.9982 19.2434 23.0034 19.2805 23.0198C19.3632 23.0564 19.7114 23.3892 20.2152 23.8654C20.5753 24.2058 20.6764 24.3115 20.7642 24.3951C20.8928 24.5174 20.2739 23.7093 20.0421 23.3634C19.9644 23.2474 19.9255 23.1011 19.8598 22.943C19.7892 22.7733 19.7987 22.6217 19.7732 22.5271C19.7492 22.4383 19.9188 22.9843 20.0247 23.2236C20.0818 23.3528 20.1922 23.5283 20.2998 23.6745C20.4041 23.8161 20.5647 23.9104 20.7027 23.9985C20.8311 24.0805 20.9838 24.1203 21.1155 24.1815C21.2405 24.2396 21.3633 24.3017 21.4777 24.3506C21.618 24.4105 21.8504 24.4289 22.026 24.4443C22.097 24.4505 22.2736 24.4835 22.5643 24.544C22.8626 24.606 23.3305 24.6441 23.8254 24.6477C24.1582 24.6501 24.4458 24.5369 24.6533 24.4764C25.0695 24.355 25.5641 24.2232 25.6818 24.1379C25.7867 24.0619 25.8392 23.9272 25.9127 23.7066C25.9945 23.461 26.0161 23.372 26.0411 23.3186C26.0686 23.2599 25.7313 23.5599 25.1367 24.1028C24.7964 24.4135 24.5757 24.5571 24.3514 24.6977C24.0771 24.8696 23.8741 24.9766 23.7944 25.0181C23.7573 25.0374 23.7259 25.051 23.7627 25.0164C23.7996 24.9818 23.9054 24.898 24.2591 24.6796C24.6128 24.4611 25.2113 24.1105 25.5405 23.9146C25.9969 23.6431 26.0936 23.5764 26.1306 23.5727C26.15 23.5707 26.1467 23.6331 25.9974 23.9236C25.8481 24.2141 25.5468 24.7474 25.1893 25.2773C24.8318 25.8073 24.4272 26.3178 24.1793 26.6161C23.7773 27.0998 23.6754 27.1241 23.643 27.1402C23.6155 27.1539 23.8645 26.872 24.4759 26.2743C24.8789 25.8804 25.4968 25.3299 25.8655 24.9824C26.3417 24.5142 26.4684 24.3676 26.487 24.3214C26.4897 24.2974 26.4787 24.2723 26.4674 24.2465" stroke="black" stroke-width="2" stroke-linecap="round"/>
<path d="M28.3591 11.9161C28.3591 11.9035 28.3428 11.8684 28.271 11.6433C28.2089 11.4487 28.1214 11.0832 28.0693 10.3176C28.0173 9.55194 28.0102 8.3953 28.0077 7.84543C28.0052 7.29556 28.0075 7.3875 27.8883 8.00283C27.7691 8.61817 27.5283 9.75411 27.3965 10.6562C27.2647 11.5583 27.2492 12.1921 27.2449 12.5456C27.2401 12.9532 27.2597 13.0641 27.2533 13.1296C27.2491 13.1719 27.1758 13.013 27.1132 12.7351C27.0628 12.5117 27.0033 12.1154 26.9521 11.2687C26.9009 10.4219 26.867 9.13521 26.8618 8.24168C26.8565 7.34815 26.8808 6.88682 26.8973 6.63547C26.9138 6.38412 26.9218 6.35674 26.9671 6.34263C27.1994 6.2703 27.6439 6.34484 27.9338 6.38371C28.1681 6.41513 28.4258 6.80964 28.6389 7.14926C28.7673 7.35386 28.8944 7.64905 29.0219 7.98314C29.1494 8.31724 29.2626 8.68772 29.5416 10.7594C29.8205 12.831 30.2618 16.5927 30.4891 18.5457C30.7164 20.4988 30.7164 20.5293 30.7046 20.5354C30.6711 20.5529 30.5926 20.4121 30.3236 19.552C30.0849 18.7891 29.727 17.3373 29.4334 15.6563C29.1398 13.9752 28.944 12.1024 28.8431 10.9716C28.7423 9.84085 28.7423 9.50892 28.8396 11.9841C28.937 14.4594 29.1317 19.7518 29.2353 22.4951C29.339 25.2384 29.3456 25.2721 29.3311 25.2762C29.1839 25.3178 29.117 25.0462 29.0388 24.8472C28.9803 24.6983 28.9017 24.4451 28.7251 22.7434C28.5485 21.0416 28.281 17.8973 28.1196 16.1652C27.9581 14.4332 27.9108 14.2087 27.8798 14.0703C27.8203 13.8037 27.767 13.6649 27.7005 13.4764C27.6928 13.4546 27.6786 13.4908 27.7341 14.5118C27.7895 15.5329 27.9079 17.5416 27.9161 18.9946C27.9243 20.4477 27.8188 21.2842 27.7473 21.7951C27.6252 22.6682 27.5331 22.8593 27.4294 23.1038C27.2401 23.5506 27.0413 23.6835 26.9844 23.7634C26.9689 23.7851 26.9589 23.7482 26.9597 23.5886C26.9605 23.429 26.9669 23.1427 27.1227 22.0984C27.2786 21.0542 27.5838 19.2605 27.7411 18.3216C27.8983 17.3827 27.8983 17.3529 27.8963 17.3632C27.8842 17.424 27.8722 17.5235 27.6241 18.1881C27.3927 18.8079 26.9354 19.9971 26.6315 20.9397C26.3276 21.8823 26.1878 22.5411 26.1056 22.9078C26.0028 23.3292 25.9541 23.428 25.9014 23.5034C25.8761 23.5363 25.8539 23.5584 25.801 23.6171" stroke="black" stroke-width="2" stroke-linecap="round"/>
<path d="M27.5742 25.4044C27.5742 25.4023 27.5742 25.4001 27.2017 26.0145C26.8292 26.6288 26.0842 27.8599 25.6702 28.5629C25.1803 29.3947 25.1251 29.5781 25.0799 29.7076C25.0457 29.8056 24.9772 29.9647 24.9739 29.9573C24.9705 29.9499 25.0315 29.7701 25.1353 29.5248C25.2392 29.2796 25.3841 28.9743 25.5396 28.6852C25.695 28.3961 25.8565 28.1325 26.0558 27.8606C26.2552 27.5886 26.4875 27.3164 26.7117 27.0946C27.124 26.6869 27.4633 26.4979 27.6426 26.4281C27.7633 26.3811 27.8638 26.3868 27.9597 26.3497C28.0175 26.3273 28.0605 26.2381 28.1819 26.0036C28.3032 25.7691 28.4931 25.3767 28.6318 25.0494C28.8729 24.4801 28.9592 24.0417 28.9937 23.7468C29.0081 23.6244 29.0055 23.5562 28.9835 23.5212C28.9615 23.4861 28.9174 23.4861 28.613 23.8107C28.3085 24.1353 27.745 24.7844 27.0062 25.8414C26.2675 26.8984 25.3706 28.3436 24.7092 29.5414C24.0479 30.7392 23.6491 31.6457 23.3894 32.3695C23.1296 33.0933 23.0209 33.6067 22.9649 33.9059C22.8963 34.2724 22.8951 34.4762 22.8743 34.8035C22.8453 35.2594 22.8908 35.5451 22.9511 35.5711C22.9858 35.586 23.0371 35.5799 23.1361 35.5291C23.2352 35.4782 23.3825 35.3766 24.2498 34.3995C25.117 33.4224 26.6997 31.573 27.6319 30.4218C28.5641 29.2706 28.7978 28.8736 28.9261 28.6438C29.0799 28.3683 29.0866 28.2591 29.0783 28.1628C29.0744 28.1176 29.0534 28.0824 29.0335 28.0554C28.9973 28.0062 28.9053 27.9873 28.7668 27.983C28.6908 27.9806 28.6031 27.997 27.8129 28.6489C27.0228 29.3008 25.5328 30.5925 24.7253 31.3C23.9178 32.0076 23.8379 32.0918 24.7031 31.1087C25.5682 30.1256 27.3808 28.0727 28.2917 27.01C29.2026 25.9473 29.157 25.9369 29.1069 25.934C29.0568 25.9311 29.0037 25.9359 28.9145 25.9658C28.8254 25.9957 28.702 26.0505 27.5176 26.9908C26.3332 27.931 24.0915 29.7549 22.9141 30.7076C21.7367 31.6603 21.6915 31.6866 21.6493 31.703C21.6071 31.7193 21.5693 31.7249 21.5294 31.7022C21.4343 31.648 21.3295 31.4148 21.1571 30.932C21.0441 30.6155 20.9501 30.1308 20.8801 29.7793C20.8101 29.4278 20.7849 29.2183 20.7672 28.7268C20.7496 28.2353 20.7401 27.4682 20.7433 27.0383C20.7482 26.3611 20.9101 26.1344 20.9503 26.1081C20.9707 26.0948 21.006 26.1206 21.036 26.1473C21.0999 26.204 21.2206 26.452 21.4238 26.9247C21.5378 27.1896 21.6354 27.5213 21.7528 28.0045C21.8701 28.4878 21.9945 29.1167 22.081 29.7927C22.1675 30.4688 22.2124 31.1729 22.2356 30.6483C22.2587 30.1238 22.2587 28.3492 22.2554 27.4182C22.252 26.4871 22.2453 26.4533 22.0834 27.4435C21.9214 28.4336 21.6044 30.4486 21.4376 31.8303C21.2707 33.212 21.2636 33.8993 21.2419 34.2527C21.2201 34.6062 21.184 34.6049 21.1089 34.5492C20.9076 34.3999 20.6464 34.0486 20.3116 33.5055C20.1191 33.1932 19.945 32.7688 19.6299 31.7787C19.3147 30.7886 18.8802 29.236 18.6507 28.4234C18.4211 27.6108 18.4097 27.5853 18.4039 27.6148C18.398 27.6442 18.398 27.7294 18.5112 28.2517C18.6244 28.774 18.8508 29.7308 19.138 30.7093C19.4252 31.6877 19.7664 32.6589 19.9514 33.2072C20.1365 33.7555 20.1551 33.8515 20.1387 33.8989C20.1223 33.9463 20.0703 33.9423 20.0194 33.9257C19.9155 33.8918 19.7151 33.7055 19.3884 33.3643C19.208 33.1759 19.0336 32.9238 18.8858 32.702C18.6162 32.2976 18.469 31.97 18.3429 31.6031C18.1353 30.9986 18.0688 30.5762 18.0467 30.5077C17.9895 30.3304 17.9102 30.1315 17.8312 29.945C17.7982 29.8683 17.7604 29.7945 17.7192 29.723C17.6999 29.6874 17.684 29.6531 17.6462 29.5819" stroke="black" stroke-width="2" stroke-linecap="round"/>
<path d="M29.098 35.4534C29.0808 35.4534 28.9279 35.459 28.2152 35.56C27.6444 35.6409 26.6579 35.8407 25.9022 35.9389C25.1465 36.0371 24.6537 36.0427 24.3803 36.0433C23.9461 36.0444 23.6805 35.8761 23.4834 35.7914C23.1952 35.6676 22.9813 35.6498 22.6421 35.5808C22.4292 35.5374 22.038 35.4554 21.742 35.3795C21.0169 35.1935 20.7757 35.0497 20.5112 34.9557C20.143 34.8248 19.6882 34.6824 19.5707 34.608C19.5619 34.6025 19.6089 34.5962 19.6389 34.6134C19.7058 34.6519 19.7458 34.7499 19.841 34.899C20.015 35.1714 20.2298 35.5099 20.3829 35.8037C20.5197 36.0663 20.5632 36.184 20.6382 36.3828C20.7525 36.6855 20.9398 37.0922 20.9911 37.2017C21.0412 37.3085 21.1023 37.4529 21.1291 37.5991C21.1589 37.7616 21.1084 37.9085 21.0813 38.0498C21.0552 38.1864 20.985 38.3136 20.9286 38.4116C20.9145 38.436 20.8825 38.4457 20.8815 38.461C20.8789 38.501 21.2186 38.5167 21.815 38.4903C22.8334 38.4451 22.9365 38.2777 23.1446 38.2452C23.2887 38.2227 23.4072 38.1924 23.5526 38.1658C23.7543 38.1289 23.991 38.0642 24.3118 37.9823C25.2074 37.7538 25.4402 37.6774 25.6264 37.6365C25.8739 37.5821 25.9912 37.5483 26.3935 37.4815C26.7296 37.4256 27.3372 37.3468 27.7484 37.2725C28.6437 37.1109 28.8158 36.9382 28.9229 36.8771C28.9776 36.8459 29.0088 36.7929 29.0282 36.7373C29.0382 36.7088 29.0485 36.6796 29.0326 36.6599C29.0168 36.6401 28.9744 36.6307 28.9197 36.6381C28.865 36.6454 28.7992 36.6699 28.2907 36.885C27.7822 37.1002 26.833 37.5052 26.3125 37.7241C25.7313 37.9685 25.5893 38.0005 25.4506 38.0315C25.3363 38.057 25.2003 38.0971 25.015 38.1461C24.8038 38.2021 24.2889 38.2248 23.6551 38.2157C23.1947 38.2091 22.8893 37.9272 22.6708 37.6967C22.5256 37.5436 22.5059 37.2854 22.4859 37.0886C22.4502 36.7352 22.5727 36.5196 22.7108 36.3419C22.8621 36.1472 23.253 36.0107 23.6988 35.9302C24.052 35.8664 24.2939 35.9333 24.2979 35.9689C24.3097 36.0721 23.7196 36.1585 23.0572 36.3175C22.7667 36.3873 22.6695 36.4101 22.5973 36.4449C22.5668 36.4595 22.5664 36.4956 22.5956 36.5441C22.8676 36.8152 23.359 37.1101 23.6305 37.2114C23.6722 37.2224 23.7059 37.229 23.813 37.2443" stroke="black" stroke-width="2" stroke-linecap="round"/>
<path d="M32.3614 29.6688C32.3614 29.6392 32.3758 29.5707 32.6161 29.1793C32.8288 28.8327 33.2784 28.2193 33.5966 27.7939C34.0828 27.1437 34.3149 26.9176 34.3354 26.9066C34.3466 26.9006 34.3102 26.969 34.2808 27.0164C34.2514 27.0637 34.2176 27.1072 33.4475 28.2659C32.6775 29.4247 31.1723 31.6973 30.3381 32.941C29.5038 34.1846 29.3862 34.3304 29.3113 34.4197C29.2108 34.5396 29.151 34.5803 29.0926 34.6013C29.0328 34.6227 28.9704 34.5923 28.9159 34.554C28.852 34.5091 28.7817 34.4165 28.7066 34.2351C28.5876 33.9478 28.6258 33.4669 28.6461 32.955C28.6556 32.7159 28.707 32.5215 28.8739 32.0672C29.0408 31.6129 29.3326 30.9054 29.6933 30.2112C30.054 29.517 30.4747 28.8577 30.7913 28.4036C31.108 27.9495 31.3078 27.7207 31.5286 27.5045C31.7493 27.2882 31.985 27.0916 32.1262 26.9776C32.2674 26.8636 32.3069 26.8383 31.5926 27.8494C30.8783 28.8606 29.4089 30.909 28.4855 32.2472C27.5621 33.5854 27.2292 34.1515 27.0504 34.4602C26.8532 34.8009 26.8061 34.8865 26.7679 34.9383C26.7654 34.9418 26.7997 34.9007 27.5323 34.4573C28.2648 34.014 29.6954 33.1701 30.6795 32.5384C31.6636 31.9066 32.158 31.5127 32.6186 31.0821C33.0793 30.6516 33.4911 30.1964 33.7115 29.9476C34.1048 29.5034 34.3233 29.0782 34.3995 28.9584C34.4787 28.834 34.5776 28.723 34.6898 28.6475C34.7138 28.6313 34.7439 28.6805 34.7526 28.7164C34.7612 28.7523 34.7525 28.7912 34.4064 29.5551C34.0602 30.3191 33.3769 31.8068 32.8649 32.8258C32.353 33.8448 32.0332 34.3501 31.8205 34.6661C31.3767 35.3257 31.0621 35.4753 30.9071 35.5676C30.6387 35.7275 30.4766 35.7525 30.3502 35.8037C30.2909 35.8278 30.237 35.8561 30.1965 35.8663C30.1795 35.8706 30.1717 35.8327 30.5309 35.1695C30.89 34.5062 31.6169 33.2085 31.9793 32.5629C32.3417 31.9174 32.3176 31.9633 32.2268 32.097C32.1359 32.2306 31.979 32.4507 31.656 32.9661C31.3331 33.4815 30.849 34.2855 30.5938 34.7131C30.2917 35.2194 30.23 35.3674 30.067 35.6512C29.9637 35.8311 29.9017 35.9298 29.8079 36.0462C29.7651 36.0993 29.7346 36.1552 29.7266 36.1812C29.6339 36.4816 30.3047 35.5573 30.6037 35.3387C30.9173 35.1094 31.3109 34.9026 31.6873 34.6262C31.951 34.4326 32.1447 34.2311 32.2321 34.1219C32.3193 34.0129 32.4387 33.9343 32.6231 33.8004C32.7759 33.6894 32.8907 33.5946 33.0071 33.4948C33.2785 33.2619 33.4552 33.0447 33.5786 32.9179C33.717 32.7755 33.8111 32.6187 33.9822 32.4271C34.1352 32.2559 34.3109 32.0235 34.4681 31.792C34.7049 31.4433 34.8668 31.1914 35.0644 30.9008C35.2402 30.6422 35.4083 30.3873 35.7953 29.7736C35.8964 29.6133 35.9554 29.511 36.1141 29.2743C36.2727 29.0377 36.5286 28.6696 36.6875 28.4319C37.0218 27.9321 37.0947 27.604 37.1508 27.4223C37.1666 27.3711 37.1919 27.4175 37.2065 27.4887C37.241 27.6569 37.2458 27.9576 37.2191 28.3422C37.1937 28.7065 36.9875 29.0774 36.7983 29.444C36.6468 29.7374 36.489 29.8752 36.3878 29.9743C36.2383 30.1209 35.9738 30.3715 35.6636 30.6788C35.2836 31.0553 35.1452 31.277 34.9964 31.4584C34.8378 31.6518 34.7754 31.7747 34.7034 31.8552C34.694 31.8657 34.6799 31.8265 34.675 31.7784C34.6702 31.7304 34.6702 31.6631 35.014 30.6203C35.3578 29.5775 36.0455 27.5613 36.4338 26.3849C36.822 25.2084 36.89 24.9327 36.9408 24.6676C36.9915 24.4026 37.023 24.1565 35.7865 25.6357C34.55 27.1149 32.0446 30.3269 30.7241 32.0071C29.4036 33.6873 29.3439 33.7385 29.2987 33.7714C29.2535 33.8043 29.2245 33.8173 29.1908 33.8255C29.1572 33.8338 29.1197 33.8369 29.0856 33.8154C28.9194 33.7111 28.9224 33.4428 28.9024 33.038C28.8882 32.7522 28.8955 32.3024 29.0101 31.7243C29.1247 31.1463 29.3538 30.4533 29.543 29.9488C29.7322 29.4444 29.8745 29.1494 30.112 28.756C30.3495 28.3626 30.6778 27.8797 31.2503 27.1867C31.8228 26.4937 32.6294 25.6052 33.1543 25.0564C33.6793 24.5076 33.898 24.3254 34.0779 24.1818C34.2579 24.0381 34.3925 23.9385 34.4594 23.9025C34.5264 23.8666 34.5215 23.8973 34.5166 23.9923C34.5117 24.0872 34.5068 24.2455 34.4597 24.534C34.4126 24.8225 34.3234 25.2364 34.2242 25.5847C34.1249 25.933 34.0182 26.2031 33.907 26.4513C33.6956 26.9232 33.4546 27.3119 33.274 27.5805C33.1905 27.7047 33.1521 27.7489 33.1155 27.7937C33.0296 27.8987 32.7789 27.8745 32.5449 27.8039C32.2161 27.7048 31.8437 27.3677 31.4876 27.0309C31.2088 26.7182 31.0448 26.4931 30.9736 26.3712C30.9443 26.3208 30.9289 26.2938 30.9129 26.266" stroke="black" stroke-width="2" stroke-linecap="round"/>
<path d="M35.1152 7.24683C35.0955 7.27379 35.0224 7.40245 34.9092 7.66375C34.7532 8.02388 34.6623 8.30115 34.643 8.37651C34.6336 8.41323 34.6201 8.44553 34.489 9.54002C34.3578 10.6345 34.1081 12.7899 33.9795 14.3093C33.8508 15.8287 33.8508 16.6468 33.8566 17.1094C33.8623 17.5721 33.8737 17.6544 33.8824 17.7124C33.8911 17.7703 33.8968 17.8013 33.9229 17.6572C33.949 17.5131 33.9955 17.1929 34.2327 15.9158C34.47 14.6388 34.8966 12.4145 35.1394 11.2022C35.3822 9.98996 35.4282 9.85715 35.4601 9.77445C35.5284 9.59734 35.5783 9.46939 35.6554 9.23894C35.7395 8.9874 35.7552 8.79504 35.8135 8.52434C35.8313 8.44135 35.8556 8.35639 35.8877 8.3347C35.9516 8.29159 36.2635 8.78097 36.6876 9.42113C36.9415 9.80423 37.0332 10.105 37.1205 10.3415C37.2047 10.5697 37.2505 10.7265 37.4129 11.2097C37.5645 11.6611 37.8671 12.5278 38.1868 13.5829C38.5066 14.638 38.8369 15.8543 39.0095 16.279C39.182 16.7037 39.1866 16.2999 39.107 15.6201C39.0273 14.9402 38.8631 13.9966 38.6543 13.1641C38.4455 12.3316 38.197 11.6388 38.0336 11.209C37.7317 10.415 37.5945 10.1886 37.5017 9.966C37.4324 9.79949 37.3638 9.66838 37.3136 9.54701C37.2836 9.47441 37.2519 9.39434 37.227 9.31879C37.2156 9.28422 37.2031 9.25855 37.2422 9.31928C37.2813 9.38001 37.3715 9.52824 37.4988 9.78806C37.6261 10.0479 37.7878 10.4148 38.1367 11.6497C38.4856 12.8846 39.0169 14.9763 39.3158 16.7434C39.6146 18.5106 39.665 19.8898 39.672 20.5969C39.679 21.304 39.641 21.2973 39.6008 21.2801C39.5606 21.2629 39.5194 21.2354 39.3559 21.0759C39.1925 20.9163 38.9081 20.6256 38.5862 20.1716C38.2644 19.7176 37.9136 19.1091 37.6252 18.4733C37.3368 17.8374 37.1214 17.1926 36.8907 15.9739C36.66 14.7552 36.4206 12.9822 36.2958 12.084C36.1709 11.1858 36.1678 11.2162 36.1973 12.4663C36.2267 13.7163 36.2888 16.185 36.3686 17.6711C36.4483 19.1571 36.5438 19.5857 36.3507 18.7056C36.1575 17.8254 35.6729 15.6236 35.3997 14.2554C35.1265 12.8872 35.0794 12.4195 35.0552 12.152C35.0124 11.6794 34.994 11.3449 35.017 11.2328C35.0237 11.2004 35.0861 11.4441 35.1286 11.677C35.1711 11.91 35.2087 12.1826 35.296 13.5721C35.3833 14.9617 35.5192 17.46 35.6356 19.0239C35.7519 20.5878 35.8446 21.1417 35.878 21.4041C35.9115 21.6665 35.883 21.6206 35.8526 21.5538C35.6873 21.1908 35.654 20.7961 35.6177 20.4041C35.5462 19.6332 35.5313 19.1072 35.506 19.0595C35.4935 19.0359 35.4559 19.0329 35.4276 19.0411C35.3993 19.0493 35.3748 19.0738 35.2814 19.2588C35.188 19.4439 35.0263 19.7888 34.8245 20.3241C34.6226 20.8595 34.3855 21.5749 34.2596 21.9246C34.1337 22.2742 34.1262 22.2365 34.1317 21.8274C34.1373 21.4183 34.1561 20.639 34.2046 20.0125C34.2531 19.386 34.3307 18.9357 34.2109 19.2222C34.0911 19.5086 33.7714 20.5454 33.5802 21.1977C33.389 21.8501 33.336 22.0866 33.2751 21.363C33.2143 20.6394 33.1472 18.9485 33.0964 17.9799C33.0456 17.0113 33.0131 16.8162 32.9798 16.6563C32.8891 16.2202 32.7893 16.0464 32.7155 15.8877C32.7001 15.8546 32.6717 15.8301 32.6429 15.8161C32.6141 15.8021 32.5808 15.8021 32.5528 15.8195C32.4917 15.8573 32.3413 16.2667 32.0963 16.926C31.9857 17.2239 31.9239 17.455 31.8844 17.5604C31.8449 17.6659 31.835 17.6407 31.8289 16.97C31.8228 16.2993 31.8207 14.9839 31.8232 14.2845C31.8257 13.5851 31.8328 13.5416 31.8489 13.5709C31.865 13.6001 31.8899 13.7034 31.9368 15.1346C31.9837 16.5657 32.0518 19.3216 32.0962 20.8081C32.1406 22.2947 32.1591 22.4282 32.173 22.5119C32.1869 22.5956 32.1956 22.6253 32.1869 22.5645C32.1782 22.5037 32.1519 22.3514 32.1357 22.0136C32.1195 21.6757 32.1142 21.1569 32.1206 20.8436C32.1288 20.4374 32.1776 20.2926 32.1935 20.2471C32.1954 20.2419 32.1868 20.3138 32.0201 20.7075C31.8533 21.1011 31.5292 21.8247 31.3471 22.1981C31.1651 22.5715 31.1349 22.5727 31.108 22.562C30.9463 22.4978 30.8215 22.2534 30.6644 22.0487C30.5596 21.912 30.4279 21.7395 30.3305 21.6273C30.2229 21.5034 30.1215 21.2648 30.0508 21.1443C30.0178 21.1861 29.979 21.2874 29.9315 21.4161C29.9056 21.4805 29.8758 21.5432 29.8179 21.6836" stroke="black" stroke-width="2" stroke-linecap="round"/>
<path d="M38.3264 16.5696C38.3264 16.5737 38.3264 16.5779 38.3428 17.0563C38.3591 17.5347 38.3919 18.4872 38.4106 18.9913C38.4304 19.5223 38.4371 19.6098 38.4385 19.764C38.4405 19.9849 38.4196 20.2323 38.3199 21.1075C38.2338 21.8645 38.1262 23.262 38.05 24.0488C37.9605 24.9723 37.9112 25.1558 37.8981 25.2553C37.8829 25.3704 37.8615 25.4607 37.865 25.4885C37.8658 25.4951 37.8878 25.4554 38.0351 25.2291C38.1824 25.0027 38.4601 24.583 38.6352 24.3027C38.8859 23.9013 38.9605 23.7012 39.0441 23.4761C39.3167 22.7416 39.3859 22.5825 39.5216 22.3497C39.5402 22.3177 39.5652 22.3604 39.5703 22.4309C39.5753 22.5013 39.5704 22.6076 39.4234 23.2997C39.2763 23.9918 38.9871 25.2665 38.7778 26.0543C38.5685 26.8422 38.4478 27.1045 38.3194 27.3502C37.9044 28.1438 37.7372 28.3025 37.6792 28.3194C37.6163 28.3378 37.5475 28.2693 37.4919 28.2084C37.4651 28.1791 37.4534 28.143 37.4441 27.9614C37.4347 27.7799 37.4311 27.4515 37.5289 26.6952C37.6266 25.939 37.8258 24.765 37.9384 23.8494C38.051 22.9339 38.071 22.3123 38.0793 21.9758C38.0906 21.5128 38.0162 21.3329 37.9458 21.1767C37.9296 21.1407 37.915 21.1173 37.8937 21.1614C37.8725 21.2056 37.8437 21.3186 37.4482 22.3316C37.0528 23.3446 36.2916 25.2543 35.8904 26.2693C35.4892 27.2844 35.471 27.3469 35.4488 27.3593C35.4265 27.3718 35.4008 27.3322 35.3619 27.208C35.323 27.0837 35.2716 26.8759 35.217 25.8658C35.1623 24.8557 35.1058 23.0496 35.1211 21.8573C35.1364 20.665 35.2252 20.1412 35.2976 19.8046C35.4522 19.086 35.7029 18.8416 35.8092 18.7262C35.8305 18.7031 35.8606 18.6973 35.8877 18.6933C35.9147 18.6894 35.9417 18.6919 35.9699 18.7079C36.1309 18.799 36.2025 19.089 36.2688 19.5171C36.3172 19.8289 36.3278 20.3414 36.2308 21.0218C36.1337 21.7022 35.9114 22.5371 35.7863 23.0343C35.6611 23.5314 35.64 23.6654 35.6754 23.6366C35.7108 23.6078 35.8035 23.4121 36.2506 22.7389C36.6978 22.0657 37.4966 20.9209 37.9132 20.3178C38.3298 19.7147 38.3401 19.6881 38.3303 19.6839C38.3204 19.6798 38.2901 19.6989 38.2615 19.7239C38.2329 19.7489 38.2068 19.7792 36.8693 21.2683C35.5318 22.7573 32.8835 25.7043 31.3446 27.3608C29.8057 29.0173 29.4565 29.2942 29.2444 29.456C28.9733 29.6628 28.8597 29.7083 28.7894 29.7065C28.7188 29.7047 28.736 29.4089 28.9598 28.4586C29.1404 27.6922 29.6314 26.3953 30.0186 25.4435C30.4058 24.4916 30.7189 23.936 31.0315 23.4487C31.3442 22.9615 31.6469 22.5595 31.9714 22.1886C32.2958 21.8177 32.6328 21.4899 32.8805 21.2671C33.2641 20.9219 33.4784 20.8016 33.5592 20.7956C33.5949 20.793 33.6031 20.8705 33.5861 20.9383C33.5691 21.006 33.5224 21.082 32.8358 21.9766C32.1492 22.8713 30.8241 24.5824 30.1511 25.4543C29.4782 26.3261 29.4975 26.3069 30.2371 25.7183C30.9767 25.1297 32.4361 23.9724 33.1956 23.3999C33.9551 22.8274 33.9706 22.8749 33.9698 22.9188C33.9684 23.0036 33.7447 23.3487 33.4402 23.8514C33.2172 24.2195 33.1739 24.316 33.1495 24.345C33.1434 24.3113 33.2174 24.1466 33.3389 23.9203C33.3881 23.8251 33.4121 23.7699 33.4368 23.7129" stroke="black" stroke-width="2" stroke-linecap="round"/>
<path d="M28.2347 4.49647C28.2224 4.53066 28.1277 4.80806 27.9411 5.0879C27.8855 5.17133 27.8261 5.20497 27.7682 5.2286C27.7369 5.24134 27.6958 5.23663 27.6637 5.22496C27.6021 5.20256 27.5264 4.99755 27.4291 4.66508C27.338 4.35392 27.3503 3.95108 27.3629 3.56144C27.3679 3.40709 27.4008 3.34258 27.4228 3.29563C27.4448 3.24867 27.4627 3.22167 27.479 3.24207C27.4954 3.26246 27.5095 3.33106 27.3875 3.69989C27.2654 4.06872 27.0066 4.73569 26.8603 5.07548C26.714 5.41527 26.6881 5.40766 26.6696 5.38261C26.6261 5.32371 26.6358 5.03528 26.7219 4.50138C26.771 4.19713 26.9579 3.85258 27.1866 3.40433C27.4153 2.95609 27.7127 2.42158 27.888 2.1156C28.1006 1.74439 28.1743 1.66665 28.2593 1.63713C28.5496 1.53642 28.7493 1.68573 28.9369 1.78331C29.1103 1.87354 29.1692 2.05474 29.2748 2.3631C29.3497 2.58183 29.4321 2.93835 29.6435 4.3147C29.855 5.69105 30.1837 8.07933 30.3939 9.75894C30.604 11.4385 30.6856 12.3371 30.7393 12.8467C30.7929 13.3564 30.8161 13.4499 30.8317 13.4729C30.8517 13.5024 30.8824 12.9382 30.9299 12.1298C30.9506 11.7762 30.9896 11.5391 31.0065 11.3043C31.0395 10.8456 31.0195 10.5863 31.0092 10.5291C31.0037 10.4986 30.9936 10.4656 31.1139 10.8387C31.2342 11.2119 31.4842 11.9922 31.6174 12.411C31.7506 12.8297 31.7595 12.8632 31.7626 12.8612C31.7657 12.8591 31.7627 12.8205 31.7015 12.5524C31.6402 12.2844 31.5208 11.7881 31.2276 10.8665C30.9344 9.94477 30.4708 8.6127 30.2239 7.91014C29.977 7.20759 29.9606 7.17492 29.9109 7.04831C29.8612 6.92169 29.7786 6.70211 29.5616 6.28983C29.3445 5.87755 28.9955 5.27922 28.8096 4.95466C28.5825 4.53111 28.448 4.19157 28.3339 3.89561C28.3184 3.85298 28.3113 3.8257 28.2897 3.73914" stroke="black" stroke-width="2" stroke-linecap="round"/>
<path d="M73.2146 33.2812C71.3748 33.2812 69.6404 32.9531 68.0115 32.2969C66.3826 31.6289 64.9412 30.6973 63.6873 29.502C62.4451 28.3066 61.4724 26.9062 60.7693 25.3008C60.0662 23.6836 59.7146 21.9199 59.7146 20.0098C59.7146 18.0879 60.072 16.3242 60.7869 14.7188C61.5017 13.1016 62.4802 11.707 63.7224 10.5352C64.9646 9.35156 66.3943 8.4375 68.0115 7.79297C69.6404 7.13672 71.363 6.80859 73.1794 6.80859C74.5974 6.80859 75.9919 7.00781 77.363 7.40625C78.7341 7.79297 79.9705 8.36133 81.072 9.11133L79.4548 12.9434C78.74 12.252 77.8259 11.7129 76.7126 11.3262C75.6111 10.9395 74.4568 10.7461 73.2498 10.7461C72.0544 10.7461 70.906 10.9688 69.8044 11.4141C68.7029 11.8477 67.7185 12.4746 66.8513 13.2949C65.9841 14.1035 65.2927 15.0762 64.7771 16.2129C64.2732 17.3379 64.0212 18.5918 64.0212 19.9746C64.0212 21.3105 64.2615 22.5469 64.7419 23.6836C65.2341 24.8203 65.908 25.8164 66.7634 26.6719C67.6189 27.5156 68.6091 28.1719 69.7341 28.6406C70.8591 29.1094 72.0544 29.3438 73.3201 29.3438C74.0818 29.3438 74.8494 29.2559 75.6228 29.0801C76.408 28.9043 77.1404 28.6465 77.8201 28.3066C78.4998 27.9551 79.0681 27.5332 79.5251 27.041L81.1423 30.873C80.0525 31.6348 78.8103 32.2266 77.4158 32.6484C76.0212 33.0703 74.6208 33.2812 73.2146 33.2812ZM83.8058 33V14.2441H87.8839V17.0039H88.4112L87.2687 18.2344C87.5851 17.5547 88.0304 16.8867 88.6046 16.2305C89.1788 15.5742 89.8878 15.0352 90.7316 14.6133C91.5753 14.1797 92.548 13.9629 93.6495 13.9629C94.0948 13.9629 94.4991 13.998 94.8624 14.0684C95.2374 14.127 95.5011 14.1973 95.6534 14.2793L93.9835 18.252C93.8898 18.2051 93.7081 18.1582 93.4386 18.1113C93.1808 18.0645 92.8819 18.041 92.5421 18.041C92.0499 18.041 91.5343 18.1406 90.9952 18.3398C90.4679 18.5391 89.9698 18.8379 89.5011 19.2363C89.0441 19.6348 88.6691 20.1328 88.3761 20.7305C88.0948 21.3164 87.9542 21.9961 87.9542 22.7695V33H83.8058ZM97.4907 33V14.2441H101.639V33H97.4907ZM99.5649 11.625C98.7798 11.625 98.1176 11.3555 97.5786 10.8164C97.0512 10.2773 96.7876 9.62109 96.7876 8.84766C96.7876 8.07422 97.0512 7.41797 97.5786 6.87891C98.1176 6.33984 98.7798 6.07031 99.5649 6.07031C100.338 6.07031 100.995 6.33984 101.534 6.87891C102.073 7.41797 102.342 8.07422 102.342 8.84766C102.342 9.62109 102.073 10.2773 101.534 10.8164C100.995 11.3555 100.338 11.625 99.5649 11.625ZM111.633 33.2812C110.508 33.2812 109.465 33.0762 108.504 32.666C107.543 32.2559 106.717 31.7109 106.025 31.0312C105.346 30.3398 104.853 29.5898 104.549 28.7812L108.064 27.2695C108.322 27.9258 108.773 28.5117 109.418 29.0273C110.074 29.543 110.812 29.8008 111.633 29.8008C112.137 29.8008 112.599 29.707 113.021 29.5195C113.443 29.3203 113.783 29.0566 114.041 28.7285C114.299 28.4004 114.428 28.0371 114.428 27.6387C114.428 27.1934 114.275 26.8125 113.971 26.4961C113.678 26.168 113.303 25.8926 112.846 25.6699C112.4 25.4473 111.931 25.2598 111.439 25.1074C110.959 24.9551 110.537 24.8203 110.174 24.7031C109.377 24.457 108.586 24.1172 107.801 23.6836C107.027 23.25 106.383 22.6816 105.867 21.9785C105.351 21.2637 105.094 20.3672 105.094 19.2891C105.094 18.1992 105.375 17.2559 105.937 16.459C106.5 15.6504 107.25 15.0352 108.187 14.6133C109.125 14.1797 110.162 13.9629 111.299 13.9629C112.869 13.9629 114.222 14.3438 115.359 15.1055C116.496 15.8555 117.299 16.7578 117.767 17.8125L114.322 19.2539C114.088 18.8203 113.736 18.3984 113.267 17.9883C112.799 17.5781 112.178 17.373 111.404 17.373C110.736 17.373 110.162 17.5488 109.681 17.9004C109.213 18.2402 108.978 18.7207 108.978 19.3418C108.978 19.8691 109.148 20.2969 109.488 20.625C109.84 20.9414 110.303 21.2109 110.877 21.4336C111.451 21.6445 112.072 21.8613 112.74 22.084C113.232 22.2363 113.789 22.4414 114.41 22.6992C115.043 22.9453 115.652 23.2734 116.238 23.6836C116.836 24.0938 117.322 24.6152 117.697 25.248C118.084 25.8691 118.277 26.6309 118.277 27.5332C118.277 28.6582 117.972 29.6543 117.363 30.5215C116.754 31.3887 115.945 32.0684 114.937 32.5605C113.93 33.041 112.828 33.2812 111.633 33.2812ZM121.38 33V14.2441H125.529V33H121.38ZM123.454 11.625C122.669 11.625 122.007 11.3555 121.468 10.8164C120.941 10.2773 120.677 9.62109 120.677 8.84766C120.677 8.07422 120.941 7.41797 121.468 6.87891C122.007 6.33984 122.669 6.07031 123.454 6.07031C124.228 6.07031 124.884 6.33984 125.423 6.87891C125.962 7.41797 126.232 8.07422 126.232 8.84766C126.232 9.62109 125.962 10.2773 125.423 10.8164C124.884 11.3555 124.228 11.625 123.454 11.625ZM135.522 33.2812C134.397 33.2812 133.354 33.0762 132.393 32.666C131.432 32.2559 130.606 31.7109 129.915 31.0312C129.235 30.3398 128.743 29.5898 128.438 28.7812L131.954 27.2695C132.211 27.9258 132.663 28.5117 133.307 29.0273C133.963 29.543 134.702 29.8008 135.522 29.8008C136.026 29.8008 136.489 29.707 136.911 29.5195C137.333 29.3203 137.672 29.0566 137.93 28.7285C138.188 28.4004 138.317 28.0371 138.317 27.6387C138.317 27.1934 138.165 26.8125 137.86 26.4961C137.567 26.168 137.192 25.8926 136.735 25.6699C136.29 25.4473 135.821 25.2598 135.329 25.1074C134.848 24.9551 134.426 24.8203 134.063 24.7031C133.266 24.457 132.475 24.1172 131.69 23.6836C130.917 23.25 130.272 22.6816 129.756 21.9785C129.241 21.2637 128.983 20.3672 128.983 19.2891C128.983 18.1992 129.264 17.2559 129.827 16.459C130.389 15.6504 131.139 15.0352 132.077 14.6133C133.014 14.1797 134.051 13.9629 135.188 13.9629C136.758 13.9629 138.112 14.3438 139.249 15.1055C140.385 15.8555 141.188 16.7578 141.657 17.8125L138.211 19.2539C137.977 18.8203 137.626 18.3984 137.157 17.9883C136.688 17.5781 136.067 17.373 135.294 17.373C134.626 17.373 134.051 17.5488 133.571 17.9004C133.102 18.2402 132.868 18.7207 132.868 19.3418C132.868 19.8691 133.038 20.2969 133.377 20.625C133.729 20.9414 134.192 21.2109 134.766 21.4336C135.34 21.6445 135.961 21.8613 136.629 22.084C137.122 22.2363 137.678 22.4414 138.299 22.6992C138.932 22.9453 139.542 23.2734 140.127 23.6836C140.725 24.0938 141.211 24.6152 141.586 25.248C141.973 25.8691 142.167 26.6309 142.167 27.5332C142.167 28.6582 141.862 29.6543 141.252 30.5215C140.643 31.3887 139.835 32.0684 138.827 32.5605C137.819 33.041 136.717 33.2812 135.522 33.2812ZM157.75 33.2812C155.91 33.2812 154.176 32.9531 152.547 32.2969C150.918 31.6289 149.476 30.6973 148.223 29.502C146.98 28.3066 146.008 26.9062 145.305 25.3008C144.601 23.6836 144.25 21.9199 144.25 20.0098C144.25 18.0879 144.607 16.3242 145.322 14.7188C146.037 13.1016 147.016 11.707 148.258 10.5352C149.5 9.35156 150.93 8.4375 152.547 7.79297C154.176 7.13672 155.898 6.80859 157.715 6.80859C159.133 6.80859 160.527 7.00781 161.898 7.40625C163.269 7.79297 164.506 8.36133 165.607 9.11133L163.99 12.9434C163.275 12.252 162.361 11.7129 161.248 11.3262C160.146 10.9395 158.992 10.7461 157.785 10.7461C156.59 10.7461 155.441 10.9688 154.34 11.4141C153.238 11.8477 152.254 12.4746 151.387 13.2949C150.519 14.1035 149.828 15.0762 149.312 16.2129C148.809 17.3379 148.557 18.5918 148.557 19.9746C148.557 21.3105 148.797 22.5469 149.277 23.6836C149.769 24.8203 150.443 25.8164 151.299 26.6719C152.154 27.5156 153.144 28.1719 154.269 28.6406C155.394 29.1094 156.59 29.3438 157.855 29.3438C158.617 29.3438 159.385 29.2559 160.158 29.0801C160.943 28.9043 161.676 28.6465 162.355 28.3066C163.035 27.9551 163.603 27.5332 164.06 27.041L165.678 30.873C164.588 31.6348 163.346 32.2266 161.951 32.6484C160.557 33.0703 159.156 33.2812 157.75 33.2812ZM176.374 33.2812C174.593 33.2812 172.993 32.8711 171.575 32.0508C170.157 31.2188 169.032 30.0762 168.2 28.623C167.368 27.1582 166.952 25.4707 166.952 23.5605C166.952 21.6621 167.368 19.9922 168.2 18.5508C169.032 17.1094 170.157 15.9844 171.575 15.1758C172.993 14.3672 174.593 13.9629 176.374 13.9629C178.179 13.9629 179.79 14.3672 181.208 15.1758C182.626 15.9844 183.745 17.1094 184.566 18.5508C185.386 19.9922 185.796 21.6621 185.796 23.5605C185.796 25.4707 185.38 27.1582 184.548 28.623C183.728 30.0762 182.603 31.2188 181.173 32.0508C179.755 32.8711 178.156 33.2812 176.374 33.2812ZM176.374 29.6074C177.406 29.6074 178.325 29.3555 179.134 28.8516C179.943 28.3477 180.575 27.6445 181.032 26.7422C181.501 25.8281 181.736 24.7676 181.736 23.5605C181.736 22.377 181.507 21.3398 181.05 20.4492C180.593 19.5586 179.96 18.8672 179.152 18.375C178.355 17.8828 177.435 17.6367 176.392 17.6367C175.361 17.6367 174.441 17.8828 173.632 18.375C172.824 18.8672 172.185 19.5586 171.716 20.4492C171.259 21.3398 171.031 22.377 171.031 23.5605C171.031 24.7676 171.259 25.8281 171.716 26.7422C172.185 27.6445 172.818 28.3477 173.615 28.8516C174.423 29.3555 175.343 29.6074 176.374 29.6074ZM188.776 33V14.2441H192.837V16.6172H193.61L192.169 18.2168C192.45 17.2793 192.907 16.5 193.54 15.8789C194.184 15.2461 194.94 14.7715 195.807 14.4551C196.686 14.127 197.63 13.9629 198.637 13.9629C200.067 13.9629 201.251 14.2852 202.188 14.9297C203.137 15.5742 203.846 16.418 204.315 17.4609C204.784 18.5039 205.018 19.6348 205.018 20.8535V33H200.87V21.75C200.87 20.3672 200.53 19.3242 199.85 18.6211C199.171 17.918 198.245 17.5664 197.073 17.5664C196.299 17.5664 195.596 17.7305 194.964 18.0586C194.331 18.375 193.833 18.8438 193.469 19.4648C193.106 20.0859 192.924 20.8535 192.924 21.7676V33H188.776ZM208.807 33V14.2441H212.867V16.6172H213.641L212.199 18.2168C212.48 17.2793 212.937 16.5 213.57 15.8789C214.215 15.2461 214.971 14.7715 215.838 14.4551C216.717 14.127 217.66 13.9629 218.668 13.9629C220.098 13.9629 221.281 14.2852 222.219 14.9297C223.168 15.5742 223.877 16.418 224.346 17.4609C224.814 18.5039 225.049 19.6348 225.049 20.8535V33H220.9V21.75C220.9 20.3672 220.561 19.3242 219.881 18.6211C219.201 17.918 218.275 17.5664 217.104 17.5664C216.33 17.5664 215.627 17.7305 214.994 18.0586C214.361 18.375 213.863 18.8438 213.5 19.4648C213.137 20.0859 212.955 20.8535 212.955 21.7676V33H208.807ZM237.204 33.2812C235.306 33.2812 233.648 32.877 232.23 32.0684C230.812 31.248 229.704 30.1113 228.908 28.6582C228.111 27.2051 227.712 25.5293 227.712 23.6309C227.712 21.6621 228.111 19.957 228.908 18.5156C229.704 17.0742 230.777 15.9609 232.124 15.1758C233.472 14.3789 234.966 13.9805 236.607 13.9805C238.177 13.9805 239.595 14.3438 240.861 15.0703C242.138 15.7969 243.152 16.8105 243.902 18.1113C244.652 19.4004 245.027 20.9121 245.027 22.6465C245.027 23.0918 245.003 23.5078 244.956 23.8945C244.91 24.2812 244.851 24.668 244.781 25.0547H230.824V22.1191H241.142C241.142 21.2285 240.954 20.4375 240.579 19.7461C240.204 19.043 239.677 18.4922 238.997 18.0938C238.318 17.6836 237.521 17.4785 236.607 17.4785C235.576 17.4785 234.673 17.7363 233.9 18.252C233.138 18.7559 232.54 19.4648 232.107 20.3789C231.685 21.2812 231.474 22.3359 231.474 23.543C231.474 24.7734 231.702 25.8574 232.16 26.7949C232.628 27.7324 233.285 28.4648 234.128 28.9922C234.984 29.5195 235.997 29.7832 237.169 29.7832C237.837 29.7832 238.47 29.7012 239.068 29.5371C239.665 29.373 240.21 29.1621 240.702 28.9043C241.195 28.6348 241.617 28.3535 241.968 28.0605L243.392 31.4707C242.654 31.998 241.745 32.4316 240.667 32.7715C239.601 33.1113 238.447 33.2812 237.204 33.2812ZM256.936 33.2109C255.589 33.2109 254.329 32.9648 253.157 32.4727C251.985 31.9805 250.954 31.3008 250.063 30.4336C249.184 29.5547 248.493 28.5293 247.989 27.3574C247.497 26.1738 247.251 24.8965 247.251 23.5254C247.251 22.1426 247.503 20.8711 248.007 19.7109C248.51 18.5391 249.202 17.5254 250.081 16.6699C250.96 15.8027 251.973 15.1348 253.122 14.666C254.282 14.1855 255.512 13.9453 256.813 13.9453C257.891 13.9453 258.94 14.1094 259.96 14.4375C260.979 14.7539 261.876 15.1875 262.649 15.7383L261.102 19.1484C260.762 18.832 260.364 18.5625 259.907 18.3398C259.45 18.1172 258.964 17.9473 258.448 17.8301C257.932 17.7012 257.423 17.6367 256.919 17.6367C255.841 17.6367 254.88 17.8887 254.036 18.3926C253.204 18.8965 252.542 19.5996 252.05 20.502C251.569 21.3926 251.329 22.4121 251.329 23.5605C251.329 24.6855 251.569 25.6992 252.05 26.6016C252.53 27.5039 253.192 28.2188 254.036 28.7461C254.88 29.2617 255.846 29.5195 256.936 29.5195C257.803 29.5195 258.618 29.373 259.38 29.0801C260.153 28.7754 260.751 28.4238 261.173 28.0254L262.702 31.4883C262.022 31.9688 261.184 32.3789 260.188 32.7188C259.192 33.0469 258.108 33.2109 256.936 33.2109ZM272.959 33.2812C270.967 33.2812 269.461 32.7188 268.441 31.5938C267.434 30.4688 266.93 29.0273 266.93 27.2695V8.47852H271.078V26.9707C271.078 27.873 271.289 28.5352 271.711 28.957C272.133 29.3789 272.66 29.5898 273.293 29.5898C273.574 29.5898 273.838 29.5547 274.084 29.4844C274.33 29.4023 274.553 29.3086 274.752 29.2031L276.176 32.5957C275.742 32.8066 275.256 32.9707 274.717 33.0879C274.178 33.2168 273.592 33.2812 272.959 33.2812ZM263.836 17.707V14.2441H275.578V17.707H263.836Z" fill="black"/>
</svg>
